0
SECTION
2
HEADER
9
$INSUNITS
70
4
9
$ACADVER
1
AC1014
9
$HANDSEED
5
FFFF
0
ENDSEC
0
SECTION
2
TABLES
0
TABLE
2
VPORT
5
8
100
AcDbSymbolTable
0
ENDTAB
0
TABLE
2
LTYPE
5
5
100
AcDbSymbolTable
0
LTYPE
5
14
100
AcDbSymbolTableRecord
100
AcDbLinetypeTableRecord
2
BYBLOCK
70
0
0
LTYPE
5
15
100
AcDbSymbolTableRecord
100
AcDbLinetypeTableRecord
2
BYLAYER
70
0
0
ENDTAB
0
TABLE
2
LAYER
5
2
100
AcDbSymbolTable
70
2
0
LAYER
5
50
100
AcDbSymbolTableRecord
100
AcDbLayerTableRecord
2
0
70
0
6
CONTINUOUS
0
ENDTAB
0
TABLE
2
STYLE
5
3
100
AcDbSymbolTable
70
1
0
STYLE
5
11
100
AcDbSymbolTableRecord
100
AcDbTextStyleTableRecord
2
STANDARD
70
0
0
ENDTAB
0
TABLE
2
VIEW
5
6
100
AcDbSymbolTable
70
0
0
ENDTAB
0
TABLE
2
UCS
5
7
100
AcDbSymbolTable
70
0
0
ENDTAB
0
TABLE
2
APPID
5
9
100
AcDbSymbolTable
70
2
0
APPID
5
12
100
AcDbSymbolTableRecord
100
AcDbRegAppTableRecord
2
ACAD
70
0
0
ENDTAB
0
TABLE
2
DIMSTYLE
5
A
100
AcDbSymbolTable
70
1
0
ENDTAB
0
TABLE
2
BLOCK_RECORD
5
1
100
AcDbSymbolTable
70
1
0
BLOCK_RECORD
5
1F
100
AcDbSymbolTableRecord
100
AcDbBlockTableRecord
2
*MODEL_SPACE
0
BLOCK_RECORD
5
1B
100
AcDbSymbolTableRecord
100
AcDbBlockTableRecord
2
*PAPER_SPACE
0
ENDTAB
0
ENDSEC
0
SECTION
2
BLOCKS
0
BLOCK
5
20
100
AcDbEntity
100
AcDbBlockBegin
2
*MODEL_SPACE
0
ENDBLK
5
21
100
AcDbEntity
100
AcDbBlockEnd
0
BLOCK
5
1C
100
AcDbEntity
100
AcDbBlockBegin
2
*PAPER_SPACE
0
ENDBLK
5
1D
100
AcDbEntity
100
AcDbBlockEnd
0
ENDSEC
0
SECTION
2
ENTITIES
0
LWPOLYLINE
5
100
100
AcDbEntity
8
0
100
AcDbPolyline
90
172
70
1
43
0.0
10
-5.9396931817445875e-14
20
188.96079360149045
10
-4.8500000000001267
20
188.96079360149048
10
-4.8500000000001267
20
190.11079360149051
10
-7.1500000000000243
20
190.11079360149051
10
-7.1500000000000243
20
188.96079360149048
10
-10.00000000000006
20
188.96079360149054
10
-10.00000000000006
20
186.06079360149079
10
-7.1500000000000243
20
186.0607936014907
10
-7.1500000000000243
20
184.91079360149052
10
-4.8500000000001267
20
184.91079360149052
10
-4.8500000000001267
20
186.06079360149064
10
-5.9661335809465991e-14
20
186.06079360149053
10
-6.5947247662734299e-13
20
171.01094890510907
10
6.0000000000002354
20
171.0109489051091
10
6.0000000000003064
20
141.01094890510913
10
-7.6360348963937592e-13
20
141.01094890510916
10
-8.5709217501062085e-13
20
114.01094890510907
10
6.000000000000413
20
114.01094890510907
10
6.000000000000413
20
84.010948905109075
10
-9.6097713859557505e-13
20
84.010948905109075
10
-1.3766765505351941e-13
20
71.960948905108765
10
-4.8500000000001133
20
71.960948905108808
10
-4.8500000000001133
20
73.110948905108884
10
-7.150000000000154
20
73.110948905108884
10
-7.150000000000154
20
71.960948905108822
10
-10.000000000000139
20
71.96094890510885
10
-10.000000000000139
20
69.060948905109257
10
-7.150000000000154
20
69.060948905109143
10
-7.150000000000154
20
67.910948905108881
10
-4.8500000000001133
20
67.910948905108881
10
-4.8500000000001133
20
69.060948905109043
10
-1.3787978365088407e-13
20
69.060948905108845
10
-1.0547118733938987e-12
20
57.010948905109103
10
6.0000000000004485
20
57.010948905109117
10
6.0000000000005196
20
27.010948905109121
10
-1.1583507875517738e-12
20
27.010948905109103
10
-1.2345680033831741e-12
20
5.0000000000000711
10
-55.999999999999972
20
5.0000000000000711
10
-56.000000000000227
20
345
10
-353.00000000000006
20
344.99999999999937
10
-353
20
5
10
-400
20
5
10
-400
20
27.010948905108876
10
-406
20
27.010948905108858
10
-406
20
57.010948905108862
10
-400
20
57.010948905108876
10
-400
20
69.060948905108845
10
-395.14999999999998
20
69.060948905109043
10
-395.14999999999998
20
67.910948905108881
10
-392.85000000000002
20
67.910948905108881
10
-392.85000000000002
20
69.060948905109143
10
-390
20
69.060948905109257
10
-390
20
71.96094890510885
10
-392.85000000000002
20
71.960948905108822
10
-392.85000000000002
20
73.110948905108884
10
-395.14999999999998
20
73.110948905108884
10
-395.14999999999998
20
71.960948905108808
10
-400
20
71.960948905108765
10
-400
20
84.010948905108833
10
-406
20
84.010948905108833
10
-406
20
114.01094890510883
10
-400.00000000000006
20
114.01094890510883
10
-400.00000000000006
20
141.0109489051089
10
-406
20
141.01094890510888
10
-406
20
171.01094890510888
10
-400.00000000000006
20
171.01094890510882
10
-400.00000000000006
20
186.06079360149053
10
-395.15000000000009
20
186.06079360149064
10
-395.15000000000009
20
184.91079360149052
10
-392.85000000000014
20
184.91079360149052
10
-392.85000000000014
20
186.0607936014907
10
-390.00000000000006
20
186.06079360149079
10
-390.00000000000006
20
188.96079360149054
10
-392.85000000000014
20
188.96079360149048
10
-392.85000000000014
20
190.11079360149051
10
-395.15000000000009
20
190.11079360149051
10
-395.15000000000009
20
188.96079360149048
10
-400.00000000000006
20
188.96079360149045
10
-400.00000000000006
20
204.01063829787222
10
-406.00000000000017
20
204.01063829787222
10
-406.00000000000017
20
234.01063829787222
10
-400.00000000000006
20
234.01063829787222
10
-400.00000000000006
20
261.01063829787228
10
-406.00000000000017
20
261.01063829787222
10
-406.00000000000017
20
291.01063829787222
10
-400.00000000000011
20
291.01063829787222
10
-400.00000000000011
20
303.06063829787217
10
-395.15000000000009
20
303.06063829787217
10
-395.15000000000009
20
301.91063829787203
10
-392.85000000000014
20
301.91063829787203
10
-392.85000000000014
20
303.06063829787217
10
-390.00000000000011
20
303.06063829787217
10
-390.00000000000011
20
305.96063829787215
10
-392.85000000000014
20
305.96063829787215
10
-392.85000000000014
20
307.11063829787201
10
-395.15000000000009
20
307.11063829787201
10
-395.15000000000009
20
305.96063829787215
10
-400.00000000000011
20
305.96063829787215
10
-400.00000000000011
20
318.01063829787216
10
-406.00000000000017
20
318.01063829787216
10
-406.00000000000017
20
348.01063829787216
10
-400.00000000000011
20
348.01063829787216
10
-400.00000000000011
20
374.9999999999992
10
-378.00000000000011
20
374.99999999999932
10
-378.00000000000011
20
380.99999999999989
10
-338.00000000000011
20
380.99999999999989
10
-338.00000000000011
20
374.99999999999937
10
-321.95000000000005
20
374.99999999999937
10
-321.95000000000022
20
370.14999999999935
10
-323.09999999999997
20
370.14999999999935
10
-323.09999999999997
20
367.8499999999994
10
-321.95000000000039
20
367.8499999999994
10
-321.95000000000044
20
364.99999999999943
10
-319.05000000000007
20
364.99999999999943
10
-319.05000000000007
20
367.8499999999994
10
-317.90000000000003
20
367.8499999999994
10
-317.90000000000003
20
370.14999999999935
10
-319.05000000000007
20
370.14999999999935
10
-319.05000000000007
20
374.99999999999937
10
-303.00000000000011
20
374.99999999999943
10
-303.00000000000011
20
380.99999999999989
10
-263.00000000000011
20
380.99999999999989
10
-263.00000000000011
20
374.99999999999949
10
-219.99999999999972
20
374.99999999999937
10
-219.99999999999977
20
380.99999999999989
10
-180.00000000000028
20
380.99999999999989
10
-180.00000000000028
20
374.99999999999977
10
-136.99999999999994
20
374.99999999999989
10
-136.99999999999994
20
380.99999999999994
10
-96.999999999999957
20
381
10
-96.999999999999943
20
374.99999999999994
10
-80.949999999999918
20
374.99999999999994
10
-80.94999999999979
20
370.14999999999992
10
-82.099999999999966
20
370.14999999999992
10
-82.099999999999952
20
367.84999999999991
10
-80.949999999999719
20
367.84999999999991
10
-80.949999999999648
20
364.99999999999994
10
-78.049999999999926
20
364.99999999999994
10
-78.04999999999994
20
367.84999999999997
10
-76.899999999999977
20
367.84999999999997
10
-76.899999999999991
20
370.14999999999992
10
-78.049999999999955
20
370.14999999999992
10
-78.049999999999997
20
374.99999999999994
10
-61.999999999999915
20
374.99999999999994
10
-61.999999999999915
20
381
10
-21.999999999999915
20
381.00000000000011
10
-21.999999999999915
20
375
10
4.6629367034256575e-14
20
375
10
-4.6629367034256575e-14
20
348.01063829787245
10
6.0000000000002709
20
348.01063829787245
10
6.0000000000002709
20
318.01063829787239
10
-1.5070744473475348e-13
20
318.01063829787239
10
5.3845816694320092e-14
20
305.96063829787215
10
-4.8499999999999819
20
305.96063829787215
10
-4.8499999999999819
20
307.11063829787201
10
-7.1500000000000217
20
307.11063829787201
10
-7.1500000000000217
20
305.96063829787215
10
-9.9999999999999449
20
305.96063829787215
10
-9.9999999999999449
20
303.06063829787217
10
-7.1500000000000217
20
303.06063829787217
10
-7.1500000000000217
20
301.91063829787203
10
-4.8499999999999819
20
301.91063829787203
10
-4.8499999999999819
20
303.06063829787217
10
5.4084248819957159e-14
20
303.06063829787217
10
-2.4424906541753444e-13
20
291.01063829787245
10
6.0000000000002354
20
291.01063829787245
10
6.0000000000003064
20
261.01063829787245
10
-3.480810936909518e-13
20
261.01063829787256
10
-4.418687638008123e-13
20
234.01063829787248
10
6.0000000000003419
20
234.01063829787248
10
6.0000000000003419
20
204.01063829787248
10
-5.4545474264715092e-13
20
204.01063829787248
0
CIRCLE
5
101
100
AcDbEntity
8
0
100
AcDbCircle
10
-283.25000000000017
20
351.99999999999943
30
0
40
1.4499999999999957
210
0
220
-0
230
1
0
CIRCLE
5
102
100
AcDbEntity
8
0
100
AcDbCircle
10
-125.75000000000014
20
351.99999999999943
30
0
40
1.4499999999999957
210
0
220
-0
230
1
0
CIRCLE
5
103
100
AcDbEntity
8
0
100
AcDbCircle
10
-15.000000000000098
20
284.99999999999989
30
0
40
1.6000000000000014
210
0
220
-0
230
1
0
CIRCLE
5
104
100
AcDbEntity
8
0
100
AcDbCircle
10
-385
20
109.9999999999994
30
0
40
1.5999999999999659
210
0
220
-0
230
1
0
CIRCLE
5
105
100
AcDbEntity
8
0
100
AcDbCircle
10
-15.000000000000046
20
184.99999999999986
30
0
40
1.5999999999999992
210
0
220
-0
230
1
0
CIRCLE
5
106
100
AcDbEntity
8
0
100
AcDbCircle
10
-15.00000000000006
20
209.99999999999986
30
0
40
1.5999999999999992
210
0
220
-0
230
1
0
CIRCLE
5
107
100
AcDbEntity
8
0
100
AcDbCircle
10
-15.000000000000085
20
259.99999999999989
30
0
40
1.6000000000000014
210
0
220
-0
230
1
0
CIRCLE
5
108
100
AcDbEntity
8
0
100
AcDbCircle
10
-15.000000000000073
20
234.99999999999986
30
0
40
1.5999999999999992
210
0
220
-0
230
1
0
LWPOLYLINE
5
109
100
AcDbEntity
8
0
100
AcDbPolyline
90
4
70
1
43
0.0
10
-49.999999999999943
20
9.9999999999999059
42
-0.99999999999999989
10
-52.999999999999957
20
9.9999999999999059
10
-52.999999999999943
20
14.999999999999918
42
-0.99999999999999989
10
-49.999999999999957
20
14.999999999999909
0
LWPOLYLINE
5
110
100
AcDbEntity
8
0
100
AcDbPolyline
90
4
70
1
43
0.0
10
-86.250000000000213
20
353.84999999999957
10
-86.250000000000213
20
349.0499999999995
42
0.99999999999999989
10
-83.250000000000199
20
349.0499999999995
10
-83.250000000000199
20
353.84999999999957
42
0.99999999999999989
0
LWPOLYLINE
5
111
100
AcDbEntity
8
0
100
AcDbPolyline
90
4
70
1
43
0.0
10
-194.50000000000014
20
348.99999999999949
10
-194.50000000000014
20
354.99999999999949
10
-214.50000000000014
20
354.99999999999949
10
-214.50000000000014
20
348.99999999999949
0
CIRCLE
5
112
100
AcDbEntity
8
0
100
AcDbCircle
10
-384.99999999999994
20
84.999999999999403
30
0
40
1.5999999999999659
210
0
220
-0
230
1
0
CIRCLE
5
113
100
AcDbEntity
8
0
100
AcDbCircle
10
-15.00000000000011
20
309.99999999999989
30
0
40
1.6000000000000014
210
0
220
-0
230
1
0
LWPOLYLINE
5
114
100
AcDbEntity
8
0
100
AcDbPolyline
90
4
70
1
43
0.0
10
-142.00000000000014
20
348.99999999999949
10
-142.00000000000014
20
354.99999999999949
10
-162.00000000000014
20
354.99999999999949
10
-162.00000000000014
20
348.99999999999949
0
LWPOLYLINE
5
115
100
AcDbEntity
8
0
100
AcDbPolyline
90
4
70
1
43
0.0
10
-371.00000000000028
20
23.499999999999343
42
-0.99999999999999989
10
-376.99999999999966
20
23.499999999999343
10
-376.99999999999966
20
32.499999999999346
42
-0.99999999999999989
10
-371.00000000000028
20
32.499999999999346
0
LWPOLYLINE
5
116
100
AcDbEntity
8
0
100
AcDbPolyline
90
4
70
1
43
0.0
10
-89.500000000000142
20
348.99999999999949
10
-89.500000000000142
20
354.99999999999949
10
-109.50000000000014
20
354.99999999999949
10
-109.50000000000014
20
348.99999999999949
0
CIRCLE
5
117
100
AcDbEntity
8
0
100
AcDbCircle
10
-15.000000000000034
20
159.99999999999983
30
0
40
1.5999999999999992
210
0
220
-0
230
1
0
CIRCLE
5
118
100
AcDbEntity
8
0
100
AcDbCircle
10
-15.000000000000009
20
109.99999999999983
30
0
40
1.6000000000000014
210
0
220
-0
230
1
0
CIRCLE
5
119
100
AcDbEntity
8
0
100
AcDbCircle
10
-384.99999999999994
20
59.999999999999396
30
0
40
1.5999999999999659
210
0
220
-0
230
1
0
CIRCLE
5
120
100
AcDbEntity
8
0
100
AcDbCircle
10
-15.00000000000002
20
134.99999999999983
30
0
40
1.5999999999999992
210
0
220
-0
230
1
0
LWPOLYLINE
5
121
100
AcDbEntity
8
0
100
AcDbPolyline
90
4
70
1
43
0.0
10
-76.750000000000227
20
353.84999999999957
10
-76.750000000000227
20
349.0499999999995
42
0.99999999999999989
10
-73.750000000000171
20
349.0499999999995
10
-73.750000000000171
20
353.84999999999957
42
0.99999999999999989
0
CIRCLE
5
122
100
AcDbEntity
8
0
100
AcDbCircle
10
-14.999999999999982
20
59.999999999999822
30
0
40
1.6000000000000014
210
0
220
-0
230
1
0
LWPOLYLINE
5
123
100
AcDbEntity
8
0
100
AcDbPolyline
90
4
70
1
43
0.0
10
-19.000000000000036
20
9.9999999999999041
42
-0.99999999999999989
10
-22.000000000000032
20
9.9999999999999023
10
-22.000000000000025
20
14.999999999999897
42
-0.99999999999999989
10
-19.000000000000043
20
14.999999999999897
0
LWPOLYLINE
5
124
100
AcDbEntity
8
0
100
AcDbPolyline
90
4
70
1
43
0.0
10
-33.000000000000028
20
23.499999999999904
42
-0.99999999999999989
10
-39.000000000000021
20
23.499999999999904
10
-39.000000000000021
20
32.499999999999915
42
-0.99999999999999989
10
-33.000000000000028
20
32.499999999999915
0
LWPOLYLINE
5
125
100
AcDbEntity
8
0
100
AcDbPolyline
90
4
70
1
43
0.0
10
-391.00000000000011
20
45.999999999999574
42
-0.99999999999999989
10
-388.00000000000011
20
45.99999999999946
10
-388.00000000000006
20
40.999999999999545
42
-0.99999999999999989
10
-391
20
40.999999999999439
0
CIRCLE
5
126
100
AcDbEntity
8
0
100
AcDbCircle
10
-385.00000000000011
20
234.9999999999994
30
0
40
1.5999999999999659
210
0
220
-0
230
1
0
CIRCLE
5
127
100
AcDbEntity
8
0
100
AcDbCircle
10
-385.00000000000023
20
284.99999999999937
30
0
40
1.5999999999999659
210
0
220
-0
230
1
0
CIRCLE
5
128
100
AcDbEntity
8
0
100
AcDbCircle
10
-15.000000000000124
20
334.99999999999989
30
0
40
1.6000000000000014
210
0
220
-0
230
1
0
CIRCLE
5
129
100
AcDbEntity
8
0
100
AcDbCircle
10
-385.00000000000011
20
259.99999999999937
30
0
40
1.5999999999999659
210
0
220
-0
230
1
0
CIRCLE
5
130
100
AcDbEntity
8
0
100
AcDbCircle
10
-17.300000000001376
20
359.99999999998624
30
0
40
1.9999999999999996
210
0
220
-0
230
1
0
LWPOLYLINE
5
131
100
AcDbEntity
8
0
100
AcDbPolyline
90
4
70
1
43
0.0
10
-19.000000000000053
20
40.999999999999872
42
-0.99999999999999989
10
-22.00000000000005
20
40.999999999999872
10
-22.00000000000005
20
45.999999999999872
42
-0.99999999999999989
10
-19.000000000000053
20
45.999999999999872
0
CIRCLE
5
132
100
AcDbEntity
8
0
100
AcDbCircle
10
-385.00000000000023
20
309.99999999999937
30
0
40
1.5999999999999659
210
0
220
-0
230
1
0
CIRCLE
5
133
100
AcDbEntity
8
0
100
AcDbCircle
10
-385.00000000000006
20
159.9999999999994
30
0
40
1.5999999999999659
210
0
220
-0
230
1
0
CIRCLE
5
134
100
AcDbEntity
8
0
100
AcDbCircle
10
-65.500000000001364
20
359.99999999999955
30
0
40
2.0000000000000018
210
0
220
-0
230
1
0
CIRCLE
5
135
100
AcDbEntity
8
0
100
AcDbCircle
10
-392.70000000000016
20
359.99999999999989
30
0
40
2.0000000000000284
210
0
220
-0
230
1
0
CIRCLE
5
136
100
AcDbEntity
8
0
100
AcDbCircle
10
-385.00000000000006
20
184.9999999999994
30
0
40
1.5999999999999659
210
0
220
-0
230
1
0
LWPOLYLINE
5
137
100
AcDbEntity
8
0
100
AcDbPolyline
90
4
70
1
43
0.0
10
-360.00000000000006
20
14.999999999998849
42
-0.99999999999999989
10
-357.00000000000011
20
14.999999999999684
10
-356.9999999999996
20
9.9999999999997407
42
-0.99999999999999989
10
-359.99999999999955
20
9.9999999999993712
0
LWPOLYLINE
5
138
100
AcDbEntity
8
0
100
AcDbPolyline
90
4
70
1
43
0.0
10
-49.999999999999986
20
40.999999999999908
42
-0.99999999999999989
10
-52.999999999999986
20
40.999999999999908
10
-53.000000000000014
20
45.999999999999908
42
-0.99999999999999989
10
-50.000000000000028
20
45.999999999999908
0
CIRCLE
5
139
100
AcDbEntity
8
0
100
AcDbCircle
10
-385.00000000000006
20
209.9999999999994
30
0
40
1.5999999999999659
210
0
220
-0
230
1
0
CIRCLE
5
140
100
AcDbEntity
8
0
100
AcDbCircle
10
-385.00000000000028
20
334.99999999999943
30
0
40
1.5999999999999659
210
0
220
-0
230
1
0
CIRCLE
5
141
100
AcDbEntity
8
0
100
AcDbCircle
10
-385
20
134.9999999999994
30
0
40
1.5999999999999659
210
0
220
-0
230
1
0
LWPOLYLINE
5
142
100
AcDbEntity
8
0
100
AcDbPolyline
90
4
70
1
43
0.0
10
-359.99999999999989
20
45.999999999999702
42
-0.99999999999999989
10
-357.00000000000017
20
45.999999999999595
10
-356.99999999999989
20
40.999999999999517
42
-0.99999999999999989
10
-359.99999999999989
20
40.999999999999432
0
LWPOLYLINE
5
143
100
AcDbEntity
8
0
100
AcDbPolyline
90
4
70
1
43
0.0
10
-299.50000000000017
20
348.99999999999949
10
-299.50000000000017
20
354.99999999999949
10
-319.50000000000017
20
354.99999999999949
10
-319.50000000000017
20
348.99999999999949
0
CIRCLE
5
144
100
AcDbEntity
8
0
100
AcDbCircle
10
-344.50000000000017
20
359.99999999999989
30
0
40
2.0000000000000284
210
0
220
-0
230
1
0
LWPOLYLINE
5
145
100
AcDbEntity
8
0
100
AcDbPolyline
90
4
70
1
43
0.0
10
-391
20
14.999999999998737
42
-0.99999999999999989
10
-388.00000000000006
20
14.999999999999389
10
-387.99999999999989
20
9.9999999999993854
42
-0.99999999999999989
10
-390.99999999999989
20
9.9999999999993001
0
CIRCLE
5
146
100
AcDbEntity
8
0
100
AcDbCircle
10
-14.999999999999996
20
84.999999999999829
30
0
40
1.6000000000000014
210
0
220
-0
230
1
0
LWPOLYLINE
5
147
100
AcDbEntity
8
0
100
AcDbPolyline
90
4
70
1
43
0.0
10
-247.00000000000017
20
348.99999999999949
10
-247.00000000000017
20
354.99999999999949
10
-267.00000000000017
20
354.99999999999949
10
-267.00000000000017
20
348.99999999999949
0
ENDSEC
0
SECTION
2
OBJECTS
0
DICTIONARY
5
C
100
AcDbDictionary
3
ACAD_GROUP
350
D
3
ACAD_MLINESTYLE
350
17
0
DICTIONARY
5
D
100
AcDbDictionary
0
DICTIONARY
5
1A
330
C
100
AcDbDictionary
0
DICTIONARY
5
17
100
AcDbDictionary
0
ENDSEC
0
EOF
