0
SECTION
2
HEADER
9
$INSUNITS
70
4
9
$ACADVER
1
AC1014
9
$HANDSEED
5
FFFF
0
ENDSEC
0
SECTION
2
TABLES
0
TABLE
2
VPORT
5
8
100
AcDbSymbolTable
0
ENDTAB
0
TABLE
2
LTYPE
5
5
100
AcDbSymbolTable
0
LTYPE
5
14
100
AcDbSymbolTableRecord
100
AcDbLinetypeTableRecord
2
BYBLOCK
70
0
0
LTYPE
5
15
100
AcDbSymbolTableRecord
100
AcDbLinetypeTableRecord
2
BYLAYER
70
0
0
ENDTAB
0
TABLE
2
LAYER
5
2
100
AcDbSymbolTable
70
2
0
LAYER
5
50
100
AcDbSymbolTableRecord
100
AcDbLayerTableRecord
2
0
70
0
6
CONTINUOUS
0
ENDTAB
0
TABLE
2
STYLE
5
3
100
AcDbSymbolTable
70
1
0
STYLE
5
11
100
AcDbSymbolTableRecord
100
AcDbTextStyleTableRecord
2
STANDARD
70
0
0
ENDTAB
0
TABLE
2
VIEW
5
6
100
AcDbSymbolTable
70
0
0
ENDTAB
0
TABLE
2
UCS
5
7
100
AcDbSymbolTable
70
0
0
ENDTAB
0
TABLE
2
APPID
5
9
100
AcDbSymbolTable
70
2
0
APPID
5
12
100
AcDbSymbolTableRecord
100
AcDbRegAppTableRecord
2
ACAD
70
0
0
ENDTAB
0
TABLE
2
DIMSTYLE
5
A
100
AcDbSymbolTable
70
1
0
ENDTAB
0
TABLE
2
BLOCK_RECORD
5
1
100
AcDbSymbolTable
70
1
0
BLOCK_RECORD
5
1F
100
AcDbSymbolTableRecord
100
AcDbBlockTableRecord
2
*MODEL_SPACE
0
BLOCK_RECORD
5
1B
100
AcDbSymbolTableRecord
100
AcDbBlockTableRecord
2
*PAPER_SPACE
0
ENDTAB
0
ENDSEC
0
SECTION
2
BLOCKS
0
BLOCK
5
20
100
AcDbEntity
100
AcDbBlockBegin
2
*MODEL_SPACE
0
ENDBLK
5
21
100
AcDbEntity
100
AcDbBlockEnd
0
BLOCK
5
1C
100
AcDbEntity
100
AcDbBlockBegin
2
*PAPER_SPACE
0
ENDBLK
5
1D
100
AcDbEntity
100
AcDbBlockEnd
0
ENDSEC
0
SECTION
2
ENTITIES
0
CIRCLE
5
100
100
AcDbEntity
8
0
100
AcDbCircle
10
-70.510948905108847
20
2.9999825131329771
30
0
40
1.4500000000000313
210
0
220
-0
230
1
0
CIRCLE
5
101
100
AcDbEntity
8
0
100
AcDbCircle
10
-304.51063829787216
20
2.9999825131329771
30
0
40
1.4500000000000313
210
0
220
-0
230
1
0
CIRCLE
5
102
100
AcDbEntity
8
0
100
AcDbCircle
10
-187.51079360149052
20
41.999982513133034
30
0
40
1.4500000000000313
210
0
220
-0
230
1
0
CIRCLE
5
103
100
AcDbEntity
8
0
100
AcDbCircle
10
-187.51079360149052
20
2.9999825131329771
30
0
40
1.4500000000000313
210
0
220
-0
230
1
0
CIRCLE
5
104
100
AcDbEntity
8
0
100
AcDbCircle
10
-304.51063829787216
20
41.999982513133034
30
0
40
1.4500000000000313
210
0
220
-0
230
1
0
CIRCLE
5
105
100
AcDbEntity
8
0
100
AcDbCircle
10
-70.510948905108847
20
41.999982513133034
30
0
40
1.4500000000000313
210
0
220
-0
230
1
0
LWPOLYLINE
5
106
100
AcDbEntity
8
0
100
AcDbPolyline
90
5
70
1
43
0.0
10
1.9317880628477724e-13
20
10.99998251313302
10
-14.999999999999147
20
-4.0000174868669802
10
-384.99999999999989
20
-4.0000174868669802
10
-384.99999999999989
20
48.999982513132991
10
1.7780948027821417e-13
20
48.999982513132991
0
CIRCLE
5
107
100
AcDbEntity
8
0
100
AcDbCircle
10
-99.000000000000057
20
33.999982513132991
30
0
40
1.9500000000000028
210
0
220
-0
230
1
0
CIRCLE
5
108
100
AcDbEntity
8
0
100
AcDbCircle
10
-42.000000000000028
20
33.999982513132991
30
0
40
1.9500000000000028
210
0
220
-0
230
1
0
CIRCLE
5
109
100
AcDbEntity
8
0
100
AcDbCircle
10
-156.00000000000006
20
33.999982513132991
30
0
40
1.9500000000000028
210
0
220
-0
230
1
0
LWPOLYLINE
5
110
100
AcDbEntity
8
0
100
AcDbPolyline
90
4
70
1
43
0.0
10
-56.760948905108854
20
38.999982513132991
10
-27.260948905108879
20
38.999982513132991
10
-27.260948905108879
20
44.999982513133006
10
-56.760948905108876
20
44.999982513133006
0
LWPOLYLINE
5
111
100
AcDbEntity
8
0
100
AcDbPolyline
90
4
70
1
43
0.0
10
-56.760948905108876
20
-1.7486866994431693e-05
10
-27.260948905108865
20
-1.7486866994431693e-05
10
-27.260948905108865
20
5.9999825131330198
10
-56.760948905108876
20
5.9999825131330198
0
LWPOLYLINE
5
112
100
AcDbEntity
8
0
100
AcDbPolyline
90
4
70
1
43
0.0
10
-113.76094890510892
20
38.999982513132991
10
-84.260948905108947
20
38.999982513132991
10
-84.260948905108904
20
44.999982513133006
10
-113.76094890510892
20
44.999982513133006
0
LWPOLYLINE
5
113
100
AcDbEntity
8
0
100
AcDbPolyline
90
4
70
1
43
0.0
10
-204.26063829787222
20
38.999982513132991
10
-204.26063829787222
20
44.999982513133006
10
-233.76063829787222
20
44.999982513133006
10
-233.76063829787222
20
38.999982513132991
0
LWPOLYLINE
5
114
100
AcDbEntity
8
0
100
AcDbPolyline
90
4
70
1
43
0.0
10
-347.76063829787211
20
-1.7486866994431693e-05
10
-318.26063829787216
20
-1.7486866994431693e-05
10
-318.26063829787216
20
5.9999825131330198
10
-347.76063829787222
20
5.9999825131330198
0
LWPOLYLINE
5
115
100
AcDbEntity
8
0
100
AcDbPolyline
90
4
70
1
43
0.0
10
-141.26094890510885
20
44.999982513133006
10
-170.76094890510888
20
44.999982513133006
10
-170.76094890510885
20
38.999982513132991
10
-141.26094890510882
20
38.999982513132991
0
LWPOLYLINE
5
116
100
AcDbEntity
8
0
100
AcDbPolyline
90
4
70
1
43
0.0
10
-290.76063829787216
20
38.999982513132991
10
-261.26063829787211
20
38.999982513132991
10
-261.26063829787216
20
44.999982513133006
10
-290.76063829787216
20
44.999982513133006
0
LWPOLYLINE
5
117
100
AcDbEntity
8
0
100
AcDbPolyline
90
4
70
1
43
0.0
10
-290.76063829787216
20
-1.7486866994431693e-05
10
-261.26063829787216
20
-1.7486866994431693e-05
10
-261.26063829787216
20
5.9999825131330198
10
-290.76063829787216
20
5.9999825131330198
0
LWPOLYLINE
5
118
100
AcDbEntity
8
0
100
AcDbPolyline
90
4
70
1
43
0.0
10
-113.76094890510892
20
-1.7486866994431693e-05
10
-84.260948905108947
20
-1.7486866994431693e-05
10
-84.260948905108904
20
5.9999825131330198
10
-113.76094890510892
20
5.9999825131330198
0
LWPOLYLINE
5
119
100
AcDbEntity
8
0
100
AcDbPolyline
90
4
70
1
43
0.0
10
-170.76094890510888
20
-1.7486866994431693e-05
10
-141.26094890510888
20
-1.7486866994431693e-05
10
-141.26094890510888
20
5.9999825131330198
10
-170.76094890510888
20
5.9999825131330198
0
LWPOLYLINE
5
120
100
AcDbEntity
8
0
100
AcDbPolyline
90
4
70
1
43
0.0
10
-233.76063829787222
20
-1.7486866994431693e-05
10
-204.26063829787222
20
-1.7486866994431693e-05
10
-204.26063829787222
20
5.9999825131330198
10
-233.76063829787222
20
5.9999825131330198
0
LWPOLYLINE
5
121
100
AcDbEntity
8
0
100
AcDbPolyline
90
4
70
1
43
0.0
10
-380.99999999999989
20
14.499982513133034
10
-380.99999999999989
20
2.4999825131330056
10
-374.99999999999989
20
2.4999825131330056
10
-374.99999999999989
20
14.499982513133034
0
LWPOLYLINE
5
122
100
AcDbEntity
8
0
100
AcDbPolyline
90
4
70
1
43
0.0
10
-318.26063829787216
20
38.999982513132991
10
-318.26063829787216
20
44.999982513133006
10
-347.76063829787222
20
44.999982513133006
10
-347.76063829787222
20
38.999982513132991
0
LWPOLYLINE
5
123
100
AcDbEntity
8
0
100
AcDbPolyline
90
4
70
1
43
0.0
10
-380.99999999999989
20
42.499982513133006
10
-380.99999999999989
20
30.499982513132977
10
-374.99999999999989
20
30.499982513132977
10
-374.99999999999989
20
42.499982513133006
0
ENDSEC
0
SECTION
2
OBJECTS
0
DICTIONARY
5
C
100
AcDbDictionary
3
ACAD_GROUP
350
D
3
ACAD_MLINESTYLE
350
17
0
DICTIONARY
5
D
100
AcDbDictionary
0
DICTIONARY
5
1A
330
C
100
AcDbDictionary
0
DICTIONARY
5
17
100
AcDbDictionary
0
ENDSEC
0
EOF
