0
SECTION
2
HEADER
9
$INSUNITS
70
4
9
$ACADVER
1
AC1014
9
$HANDSEED
5
FFFF
0
ENDSEC
0
SECTION
2
TABLES
0
TABLE
2
VPORT
5
8
100
AcDbSymbolTable
0
ENDTAB
0
TABLE
2
LTYPE
5
5
100
AcDbSymbolTable
0
LTYPE
5
14
100
AcDbSymbolTableRecord
100
AcDbLinetypeTableRecord
2
BYBLOCK
70
0
0
LTYPE
5
15
100
AcDbSymbolTableRecord
100
AcDbLinetypeTableRecord
2
BYLAYER
70
0
0
ENDTAB
0
TABLE
2
LAYER
5
2
100
AcDbSymbolTable
70
2
0
LAYER
5
50
100
AcDbSymbolTableRecord
100
AcDbLayerTableRecord
2
0
70
0
6
CONTINUOUS
0
ENDTAB
0
TABLE
2
STYLE
5
3
100
AcDbSymbolTable
70
1
0
STYLE
5
11
100
AcDbSymbolTableRecord
100
AcDbTextStyleTableRecord
2
STANDARD
70
0
0
ENDTAB
0
TABLE
2
VIEW
5
6
100
AcDbSymbolTable
70
0
0
ENDTAB
0
TABLE
2
UCS
5
7
100
AcDbSymbolTable
70
0
0
ENDTAB
0
TABLE
2
APPID
5
9
100
AcDbSymbolTable
70
2
0
APPID
5
12
100
AcDbSymbolTableRecord
100
AcDbRegAppTableRecord
2
ACAD
70
0
0
ENDTAB
0
TABLE
2
DIMSTYLE
5
A
100
AcDbSymbolTable
70
1
0
ENDTAB
0
TABLE
2
BLOCK_RECORD
5
1
100
AcDbSymbolTable
70
1
0
BLOCK_RECORD
5
1F
100
AcDbSymbolTableRecord
100
AcDbBlockTableRecord
2
*MODEL_SPACE
0
BLOCK_RECORD
5
1B
100
AcDbSymbolTableRecord
100
AcDbBlockTableRecord
2
*PAPER_SPACE
0
ENDTAB
0
ENDSEC
0
SECTION
2
BLOCKS
0
BLOCK
5
20
100
AcDbEntity
100
AcDbBlockBegin
2
*MODEL_SPACE
0
ENDBLK
5
21
100
AcDbEntity
100
AcDbBlockEnd
0
BLOCK
5
1C
100
AcDbEntity
100
AcDbBlockBegin
2
*PAPER_SPACE
0
ENDBLK
5
1D
100
AcDbEntity
100
AcDbBlockEnd
0
ENDSEC
0
SECTION
2
ENTITIES
0
LWPOLYLINE
5
100
100
AcDbEntity
8
0
100
AcDbPolyline
90
94
70
1
43
0.0
10
-124.3000000000002
20
6.0000141445848243
10
-124.30000000000015
20
10.850014144584819
10
-123.15000000000005
20
10.850014144584819
10
-123.15000000000005
20
13.150014144584787
10
-124.30000000000014
20
13.150014144584787
10
-124.30000000000013
20
16.000014144585606
10
-127.19999999999897
20
16.000014144585606
10
-127.19999999999929
20
13.150014144584787
10
-128.35000000000005
20
13.150014144584787
10
-128.35000000000005
20
10.850014144584819
10
-127.19999999999958
20
10.850014144584819
10
-127.20000000000016
20
6.0000141445848261
10
-141.74999999999972
20
6.0000141445829769
10
-141.75000000000006
20
1.4144582467802457e-05
10
-162.25000000000006
20
1.4144582465291933e-05
10
-162.24999999999935
20
6.0000141445830524
10
-194.25000000000009
20
6.0000141445834032
10
-194.25000000000009
20
1.4144582396748182e-05
10
-214.75000000000006
20
1.4144582394237659e-05
10
-214.74999999999937
20
6.0000141445834076
10
-246.75000000000014
20
6.0000141445837585
10
-246.75000000000011
20
1.4144582396748182e-05
10
-267.25000000000011
20
1.4144582323183386e-05
10
-267.24999999999903
20
6.0000141445837603
10
-281.80000000000041
20
6.000014144584398
10
-281.80000000000041
20
10.850014144584392
10
-280.65000000000009
20
10.850014144584392
10
-280.65000000000015
20
13.150014144584361
10
-281.80000000000035
20
13.150014144584361
10
-281.80000000000035
20
16.000014144584469
10
-284.69999999999965
20
16.000014144584469
10
-284.69999999999987
20
13.150014144584219
10
-285.85000000000014
20
13.150014144584219
10
-285.85000000000014
20
10.85001414458425
10
-284.70000000000005
20
10.85001414458425
10
-284.70000000000039
20
6.0000141445841866
10
-299.24999999999972
20
6.0000141445839716
10
-299.25000000000011
20
1.4144582325693908e-05
10
-319.75000000000011
20
1.4144582323183386e-05
10
-319.74999999999926
20
6.0000141445840445
10
-334.50000000000011
20
6.0000141445841138
10
-334.5000000000004
20
39.000014144582309
10
-319.74999999999955
20
39.000014144582593
10
-319.75000000000108
20
45.000014144582181
10
-299.25000000000108
20
45.000014144582252
10
-299.25000000000068
20
39.000014144582451
10
-284.70000000000039
20
39.000014144582451
10
-284.70000000000005
20
34.150014144582386
10
-285.85000000000019
20
34.150014144582386
10
-285.85000000000019
20
31.850014144582417
10
-284.69999999999987
20
31.850014144582417
10
-284.6999999999997
20
29.000014144582451
10
-281.80000000000041
20
29.000014144582451
10
-281.80000000000041
20
31.850014144582417
10
-280.6500000000002
20
31.850014144582417
10
-280.6500000000002
20
34.150014144582386
10
-281.80000000000041
20
34.150014144582386
10
-281.80000000000041
20
39.000014144582522
10
-267.24999999999994
20
39.000014144582522
10
-267.25000000000028
20
45.000014144582323
10
-246.75000000000026
20
45.000014144582323
10
-246.75000000000026
20
39.000014144582444
10
-214.74999999999997
20
39.000014144582451
10
-214.75000000000006
20
45.000014144582323
10
-194.25000000000009
20
45.000014144582323
10
-194.25000000000009
20
39.000014144582586
10
-162.24999999999983
20
39.000014144582664
10
-162.25000000000063
20
45.000014144582323
10
-141.75000000000063
20
45.000014144582394
10
-141.75000000000031
20
39.000014144582522
10
-127.20000000000016
20
39.000014144582522
10
-127.19999999999968
20
34.150014144582528
10
-128.35000000000011
20
34.150014144582528
10
-128.35000000000011
20
31.850014144582559
10
-127.19999999999943
20
31.850014144582559
10
-127.19999999999915
20
29.000014144582593
10
-124.30000000000014
20
29.000014144582593
10
-124.30000000000015
20
31.850014144582559
10
-123.15000000000011
20
31.850014144582559
10
-123.15000000000011
20
34.150014144582528
10
-124.30000000000018
20
34.150014144582528
10
-124.3000000000002
20
39.000014144582522
10
-109.74999999999979
20
39.000014144582735
10
-109.75000000000064
20
45.000014144582394
10
-89.250000000000654
20
45.000014144582465
10
-89.250000000000341
20
39.000014144582451
10
-74.500000000000099
20
39.000014144582451
10
-74.500000000000099
20
13.000014144582581
10
-90.500000000000099
20
13.000014144582579
10
-90.500000000000142
20
6.0000141445825506
10
-89.249999999999687
20
6.0000141445826216
10
-89.250000000000057
20
1.4144582467802457e-05
10
-109.75000000000007
20
1.4144582465291933e-05
10
-109.74999999999936
20
6.0000141445826944
0
ENDSEC
0
SECTION
2
OBJECTS
0
DICTIONARY
5
C
100
AcDbDictionary
3
ACAD_GROUP
350
D
3
ACAD_MLINESTYLE
350
17
0
DICTIONARY
5
D
100
AcDbDictionary
0
DICTIONARY
5
1A
330
C
100
AcDbDictionary
0
DICTIONARY
5
17
100
AcDbDictionary
0
ENDSEC
0
EOF
