0
SECTION
2
HEADER
9
$INSUNITS
70
4
9
$ACADVER
1
AC1014
9
$HANDSEED
5
FFFF
0
ENDSEC
0
SECTION
2
TABLES
0
TABLE
2
VPORT
5
8
100
AcDbSymbolTable
0
ENDTAB
0
TABLE
2
LTYPE
5
5
100
AcDbSymbolTable
0
LTYPE
5
14
100
AcDbSymbolTableRecord
100
AcDbLinetypeTableRecord
2
BYBLOCK
70
0
0
LTYPE
5
15
100
AcDbSymbolTableRecord
100
AcDbLinetypeTableRecord
2
BYLAYER
70
0
0
ENDTAB
0
TABLE
2
LAYER
5
2
100
AcDbSymbolTable
70
2
0
LAYER
5
50
100
AcDbSymbolTableRecord
100
AcDbLayerTableRecord
2
0
70
0
6
CONTINUOUS
0
ENDTAB
0
TABLE
2
STYLE
5
3
100
AcDbSymbolTable
70
1
0
STYLE
5
11
100
AcDbSymbolTableRecord
100
AcDbTextStyleTableRecord
2
STANDARD
70
0
0
ENDTAB
0
TABLE
2
VIEW
5
6
100
AcDbSymbolTable
70
0
0
ENDTAB
0
TABLE
2
UCS
5
7
100
AcDbSymbolTable
70
0
0
ENDTAB
0
TABLE
2
APPID
5
9
100
AcDbSymbolTable
70
2
0
APPID
5
12
100
AcDbSymbolTableRecord
100
AcDbRegAppTableRecord
2
ACAD
70
0
0
ENDTAB
0
TABLE
2
DIMSTYLE
5
A
100
AcDbSymbolTable
70
1
0
ENDTAB
0
TABLE
2
BLOCK_RECORD
5
1
100
AcDbSymbolTable
70
1
0
BLOCK_RECORD
5
1F
100
AcDbSymbolTableRecord
100
AcDbBlockTableRecord
2
*MODEL_SPACE
0
BLOCK_RECORD
5
1B
100
AcDbSymbolTableRecord
100
AcDbBlockTableRecord
2
*PAPER_SPACE
0
ENDTAB
0
ENDSEC
0
SECTION
2
BLOCKS
0
BLOCK
5
20
100
AcDbEntity
100
AcDbBlockBegin
2
*MODEL_SPACE
0
ENDBLK
5
21
100
AcDbEntity
100
AcDbBlockEnd
0
BLOCK
5
1C
100
AcDbEntity
100
AcDbBlockBegin
2
*PAPER_SPACE
0
ENDBLK
5
1D
100
AcDbEntity
100
AcDbBlockEnd
0
ENDSEC
0
SECTION
2
ENTITIES
0
LWPOLYLINE
5
100
100
AcDbEntity
8
0
100
AcDbPolyline
90
48
70
1
43
0.0
10
56.000000000000654
20
-28.949999999999868
10
60.850000000000364
20
-28.950000000001022
10
60.850000000000222
20
-30.149999999999114
10
63.150000000000261
20
-30.149999999999363
10
63.150000000000546
20
-28.950000000001566
10
66.000000000000654
20
-28.950000000002248
10
66.00000000000108
20
-26.050000000000392
10
63.150000000001114
20
-26.050000000000239
10
63.150000000001256
20
-24.949999999999655
10
60.850000000000648
20
-24.949999999999115
10
60.850000000000506
20
-26.050000000000114
10
56.000000000000938
20
-26.049999999999862
10
56.000000000001222
20
-19.499999999999833
10
50
20
-19.499999999999833
10
50
20
-6.4999999999998366
10
56.000000000001648
20
-6.4999999999998366
10
56.000000000001862
20
1.5543122344752179e-13
10
468.00000000000182
20
-3.141931159689193e-13
10
468.00000000000193
20
-6.5000000000003251
10
474.00000000000176
20
-6.5000000000003233
10
474.00000000000176
20
-19.50000000000032
10
468.0000000000021
20
-19.500000000000316
10
468.00000000001421
20
-26.049999999910863
10
463.15000000001464
20
-26.049999999913215
10
463.15000000001407
20
-24.949999999912215
10
460.85000000001344
20
-24.94999999991375
10
460.85000000001412
20
-26.049999999914331
10
458.00000000001404
20
-26.049999999915716
10
458.00000000001575
20
-28.949999999917573
10
460.85000000001583
20
-28.949999999915661
10
460.85000000001656
20
-30.149999999913458
10
463.15000000001675
20
-30.149999999912215
10
463.15000000001618
20
-28.949999999914123
10
468.00000000001575
20
-28.949999999910872
10
468.00000000000239
20
-35.500000000045681
10
474.00000000000176
20
-35.500000000045674
10
474.00000000000176
20
-48.500000000045695
10
468.00000000000239
20
-48.500000000045688
10
468.00000000000267
20
-55.000000000042668
10
399.50000000000358
20
-54.999999999999893
10
399.50000000000733
20
-24.999999999999755
10
124.50000000000742
20
-24.999999999999769
10
124.49999999999902
20
-54.999999999999893
10
55.999999999999943
20
-54.999999999999901
10
56.000000000000227
20
-48.499999999999908
10
50
20
-48.499999999999901
10
50
20
-35.499999999999893
10
56.000000000000369
20
-35.499999999999893
0
ENDSEC
0
SECTION
2
OBJECTS
0
DICTIONARY
5
C
100
AcDbDictionary
3
ACAD_GROUP
350
D
3
ACAD_MLINESTYLE
350
17
0
DICTIONARY
5
D
100
AcDbDictionary
0
DICTIONARY
5
1A
330
C
100
AcDbDictionary
0
DICTIONARY
5
17
100
AcDbDictionary
0
ENDSEC
0
EOF
