0
SECTION
2
HEADER
9
$INSUNITS
70
4
9
$ACADVER
1
AC1014
9
$HANDSEED
5
FFFF
0
ENDSEC
0
SECTION
2
TABLES
0
TABLE
2
VPORT
5
8
100
AcDbSymbolTable
0
ENDTAB
0
TABLE
2
LTYPE
5
5
100
AcDbSymbolTable
0
LTYPE
5
14
100
AcDbSymbolTableRecord
100
AcDbLinetypeTableRecord
2
BYBLOCK
70
0
0
LTYPE
5
15
100
AcDbSymbolTableRecord
100
AcDbLinetypeTableRecord
2
BYLAYER
70
0
0
ENDTAB
0
TABLE
2
LAYER
5
2
100
AcDbSymbolTable
70
2
0
LAYER
5
50
100
AcDbSymbolTableRecord
100
AcDbLayerTableRecord
2
0
70
0
6
CONTINUOUS
0
ENDTAB
0
TABLE
2
STYLE
5
3
100
AcDbSymbolTable
70
1
0
STYLE
5
11
100
AcDbSymbolTableRecord
100
AcDbTextStyleTableRecord
2
STANDARD
70
0
0
ENDTAB
0
TABLE
2
VIEW
5
6
100
AcDbSymbolTable
70
0
0
ENDTAB
0
TABLE
2
UCS
5
7
100
AcDbSymbolTable
70
0
0
ENDTAB
0
TABLE
2
APPID
5
9
100
AcDbSymbolTable
70
2
0
APPID
5
12
100
AcDbSymbolTableRecord
100
AcDbRegAppTableRecord
2
ACAD
70
0
0
ENDTAB
0
TABLE
2
DIMSTYLE
5
A
100
AcDbSymbolTable
70
1
0
ENDTAB
0
TABLE
2
BLOCK_RECORD
5
1
100
AcDbSymbolTable
70
1
0
BLOCK_RECORD
5
1F
100
AcDbSymbolTableRecord
100
AcDbBlockTableRecord
2
*MODEL_SPACE
0
BLOCK_RECORD
5
1B
100
AcDbSymbolTableRecord
100
AcDbBlockTableRecord
2
*PAPER_SPACE
0
ENDTAB
0
ENDSEC
0
SECTION
2
BLOCKS
0
BLOCK
5
20
100
AcDbEntity
100
AcDbBlockBegin
2
*MODEL_SPACE
0
ENDBLK
5
21
100
AcDbEntity
100
AcDbBlockEnd
0
BLOCK
5
1C
100
AcDbEntity
100
AcDbBlockBegin
2
*PAPER_SPACE
0
ENDBLK
5
1D
100
AcDbEntity
100
AcDbBlockEnd
0
ENDSEC
0
SECTION
2
ENTITIES
0
CIRCLE
5
100
100
AcDbEntity
8
0
100
AcDbCircle
10
320.50000000000011
20
2.9999847412115344
30
0
40
1.4499999999999957
210
0
220
-0
230
1
0
CIRCLE
5
101
100
AcDbEntity
8
0
100
AcDbCircle
10
79.499999999999915
20
41.999984741211449
30
0
40
1.4499999999999957
210
0
220
-0
230
1
0
CIRCLE
5
102
100
AcDbEntity
8
0
100
AcDbCircle
10
320.50000000000011
20
41.999984741211449
30
0
40
1.4499999999999957
210
0
220
-0
230
1
0
CIRCLE
5
103
100
AcDbEntity
8
0
100
AcDbCircle
10
79.499999999999915
20
2.9999847412112501
30
0
40
1.4499999999999957
210
0
220
-0
230
1
0
LWPOLYLINE
5
104
100
AcDbEntity
8
0
100
AcDbPolyline
90
4
70
1
43
0.0
10
377.75000000000011
20
5.9999847412108664
10
338.25000000000011
20
5.9999847412108664
10
338.25000000000011
20
-1.525878857933094e-05
10
377.75000000000011
20
-1.525878857933094e-05
0
LWPOLYLINE
5
105
100
AcDbEntity
8
0
100
AcDbPolyline
90
4
70
1
43
0.0
10
61.500000000000703
20
38.999984741211051
10
61.500000000000703
20
44.999984741211065
10
22.499999999999357
20
44.999984741211136
10
22.499999999999357
20
38.999984741211122
0
LWPOLYLINE
5
106
100
AcDbEntity
8
0
100
AcDbPolyline
90
4
70
1
43
0.0
10
219.74999999999977
20
5.9999847412100848
10
180.25000000000023
20
5.9999847412100848
10
180.25000000000023
20
-1.5258789076710855e-05
10
219.74999999999977
20
-1.5258789076710855e-05
0
LWPOLYLINE
5
107
100
AcDbEntity
8
0
100
AcDbPolyline
90
4
70
1
43
0.0
10
302.50000000000051
20
44.999984741211634
10
263.49999999999989
20
44.999984741211634
10
263.49999999999972
20
38.99998474121162
10
302.50000000000051
20
38.99998474121162
0
LWPOLYLINE
5
108
100
AcDbEntity
8
0
100
AcDbPolyline
90
4
70
1
43
0.0
10
61.749999999999964
20
-1.5258788437222393e-05
10
61.749999999999979
20
5.9999847412110086
10
22.249999999999993
20
5.9999847412110796
10
22.249999999999957
20
-1.5258788366168119e-05
0
LWPOLYLINE
5
109
100
AcDbEntity
8
0
100
AcDbPolyline
90
4
70
1
43
0.0
10
302.75000000000011
20
5.9999847412105112
10
263.25000000000011
20
5.9999847412105112
10
263.25000000000011
20
-1.5258788934602308e-05
10
302.75000000000011
20
-1.5258788934602308e-05
0
LWPOLYLINE
5
110
100
AcDbEntity
8
0
100
AcDbPolyline
90
4
70
1
43
0.0
10
377.50000000000051
20
44.999984741211634
10
338.49999999999972
20
44.999984741211634
10
338.49999999999972
20
38.99998474121162
10
377.50000000000051
20
38.99998474121162
0
LWPOLYLINE
5
111
100
AcDbEntity
8
0
100
AcDbPolyline
90
4
70
1
43
0.0
10
136.50000000000068
20
38.99998474121098
10
136.50000000000057
20
44.999984741210994
10
97.499999999999361
20
44.999984741211065
10
97.499999999999361
20
38.999984741211051
0
LWPOLYLINE
5
112
100
AcDbEntity
8
0
100
AcDbPolyline
90
4
70
1
43
0.0
10
136.74999999999989
20
-1.5258788863548034e-05
10
136.74999999999989
20
5.9999847412105822
10
97.249999999999915
20
5.9999847412106533
10
97.249999999999915
20
-1.525878879249376e-05
0
LWPOLYLINE
5
113
100
AcDbEntity
8
0
100
AcDbPolyline
90
4
70
1
43
0.0
10
180.25000000000031
20
38.999984741210909
10
219.74999999999977
20
38.999984741210909
10
219.74999999999969
20
44.999984741210923
10
180.25000000000037
20
44.999984741210923
0
LWPOLYLINE
5
114
100
AcDbEntity
8
0
100
AcDbPolyline
90
20
70
1
43
0.0
10
400.00000000000011
20
-4.000015258788423
10
-5.0376369742366478e-14
20
-4.0000152587888493
10
-4.3298697960381105e-14
20
2.4999847412111365
10
-6.0000000000000497
20
2.4999847412111365
10
-6.0000000000000142
20
14.499984741211165
10
-3.0806070482818471e-14
20
14.499984741211023
10
-1.4432899320127035e-14
20
30.499984741211179
10
-6.0000000000000373
20
30.499984741211179
10
-6.0000000000000018
20
42.499984741211208
10
-1.1861580899886482e-15
20
42.499984741211208
10
0
20
48.999984741211193
10
400.00000000000011
20
48.99998474121162
10
400.00000000000011
20
42.499984741211634
10
406.00000000000017
20
42.499984741211634
10
406.00000000000017
20
30.499984741211605
10
400.00000000000011
20
30.499984741211605
10
400.00000000000011
20
14.499984741211449
10
406.00000000000017
20
14.499984741211591
10
406.00000000000017
20
2.4999847412115628
10
400.00000000000011
20
2.4999847412115628
0
ENDSEC
0
SECTION
2
OBJECTS
0
DICTIONARY
5
C
100
AcDbDictionary
3
ACAD_GROUP
350
D
3
ACAD_MLINESTYLE
350
17
0
DICTIONARY
5
D
100
AcDbDictionary
0
DICTIONARY
5
1A
330
C
100
AcDbDictionary
0
DICTIONARY
5
17
100
AcDbDictionary
0
ENDSEC
0
EOF
