0
SECTION
2
HEADER
9
$INSUNITS
70
4
9
$ACADVER
1
AC1014
9
$HANDSEED
5
FFFF
0
ENDSEC
0
SECTION
2
TABLES
0
TABLE
2
VPORT
5
8
100
AcDbSymbolTable
0
ENDTAB
0
TABLE
2
LTYPE
5
5
100
AcDbSymbolTable
0
LTYPE
5
14
100
AcDbSymbolTableRecord
100
AcDbLinetypeTableRecord
2
BYBLOCK
70
0
0
LTYPE
5
15
100
AcDbSymbolTableRecord
100
AcDbLinetypeTableRecord
2
BYLAYER
70
0
0
ENDTAB
0
TABLE
2
LAYER
5
2
100
AcDbSymbolTable
70
2
0
LAYER
5
50
100
AcDbSymbolTableRecord
100
AcDbLayerTableRecord
2
0
70
0
6
CONTINUOUS
0
ENDTAB
0
TABLE
2
STYLE
5
3
100
AcDbSymbolTable
70
1
0
STYLE
5
11
100
AcDbSymbolTableRecord
100
AcDbTextStyleTableRecord
2
STANDARD
70
0
0
ENDTAB
0
TABLE
2
VIEW
5
6
100
AcDbSymbolTable
70
0
0
ENDTAB
0
TABLE
2
UCS
5
7
100
AcDbSymbolTable
70
0
0
ENDTAB
0
TABLE
2
APPID
5
9
100
AcDbSymbolTable
70
2
0
APPID
5
12
100
AcDbSymbolTableRecord
100
AcDbRegAppTableRecord
2
ACAD
70
0
0
ENDTAB
0
TABLE
2
DIMSTYLE
5
A
100
AcDbSymbolTable
70
1
0
ENDTAB
0
TABLE
2
BLOCK_RECORD
5
1
100
AcDbSymbolTable
70
1
0
BLOCK_RECORD
5
1F
100
AcDbSymbolTableRecord
100
AcDbBlockTableRecord
2
*MODEL_SPACE
0
BLOCK_RECORD
5
1B
100
AcDbSymbolTableRecord
100
AcDbBlockTableRecord
2
*PAPER_SPACE
0
ENDTAB
0
ENDSEC
0
SECTION
2
BLOCKS
0
BLOCK
5
20
100
AcDbEntity
100
AcDbBlockBegin
2
*MODEL_SPACE
0
ENDBLK
5
21
100
AcDbEntity
100
AcDbBlockEnd
0
BLOCK
5
1C
100
AcDbEntity
100
AcDbBlockBegin
2
*PAPER_SPACE
0
ENDBLK
5
1D
100
AcDbEntity
100
AcDbBlockEnd
0
ENDSEC
0
SECTION
2
ENTITIES
0
LWPOLYLINE
5
100
100
AcDbEntity
8
0
100
AcDbPolyline
90
4
70
1
43
0.0
10
-267.00000000000017
20
354.99999999999949
10
-267.00000000000017
20
348.99999999999949
10
-247.00000000000017
20
348.99999999999949
10
-247.00000000000017
20
354.99999999999949
0
LWPOLYLINE
5
101
100
AcDbEntity
8
0
100
AcDbPolyline
90
4
70
1
43
0.0
10
-319.50000000000017
20
354.99999999999949
10
-319.50000000000017
20
348.99999999999949
10
-299.50000000000017
20
348.99999999999949
10
-299.50000000000017
20
354.99999999999949
0
LWPOLYLINE
5
102
100
AcDbEntity
8
0
100
AcDbPolyline
90
4
70
1
43
0.0
10
-162.00000000000014
20
354.99999999999949
10
-162.00000000000014
20
348.99999999999949
10
-142.00000000000014
20
348.99999999999949
10
-142.00000000000014
20
354.99999999999949
0
LWPOLYLINE
5
103
100
AcDbEntity
8
0
100
AcDbPolyline
90
4
70
1
43
0.0
10
-109.50000000000014
20
354.99999999999949
10
-109.50000000000014
20
348.99999999999949
10
-89.500000000000142
20
348.99999999999949
10
-89.500000000000142
20
354.99999999999949
0
CIRCLE
5
104
100
AcDbEntity
8
0
100
AcDbCircle
10
-375.2000000000001
20
359.99999999999989
30
0
40
2.9999999999999716
210
0
220
-0
230
1
0
CIRCLE
5
105
100
AcDbEntity
8
0
100
AcDbCircle
10
-125.75000000000014
20
351.99999999999943
30
0
40
1.4499999999999957
210
0
220
-0
230
1
0
CIRCLE
5
106
100
AcDbEntity
8
0
100
AcDbCircle
10
-283.25000000000017
20
351.99999999999943
30
0
40
1.4499999999999957
210
0
220
-0
230
1
0
LWPOLYLINE
5
107
100
AcDbEntity
8
0
100
AcDbPolyline
90
4
70
1
43
0.0
10
-214.50000000000014
20
354.99999999999949
10
-214.50000000000014
20
348.99999999999949
10
-194.50000000000014
20
348.99999999999949
10
-194.50000000000014
20
354.99999999999949
0
CIRCLE
5
108
100
AcDbEntity
8
0
100
AcDbCircle
10
-48.000000000000966
20
359.99999999998835
30
0
40
2.9999999999999982
210
0
220
-0
230
1
0
LWPOLYLINE
5
109
100
AcDbEntity
8
0
100
AcDbPolyline
90
176
70
1
43
0.0
10
-1.1723955140041653e-12
20
27.010948905109093
10
0
20
4.0413343146651677e-15
10
-14.000000000000234
20
1.5099033134902129e-13
10
-14.000000000000234
20
53.999999999999993
10
-56.000000000000014
20
53.999999999999631
10
-56.000000000000227
20
345
10
-353.00000000000006
20
344.99999999999937
10
-353
20
53.999999999997009
10
-395.99999999999994
20
53.999999999997002
10
-395.99999999999994
20
-6.3544712786942496e-13
10
-400
20
-6.3504757008558954e-13
10
-400
20
27.010948905108879
10
-406
20
27.010948905108883
10
-406
20
57.010948905108883
10
-400
20
57.010948905108883
10
-400
20
69.060948905108873
10
-395.14999999999998
20
69.060948905109043
10
-395.14999999999998
20
67.910948905108881
10
-392.85000000000002
20
67.910948905108881
10
-392.85000000000002
20
69.060948905109157
10
-390
20
69.060948905109257
10
-390
20
71.960948905108864
10
-392.85000000000002
20
71.960948905108822
10
-392.85000000000002
20
73.110948905108884
10
-395.14999999999998
20
73.110948905108884
10
-395.14999999999998
20
71.960948905108822
10
-400
20
71.960948905108779
10
-400
20
84.010948905108833
10
-406
20
84.010948905108833
10
-406
20
114.01094890510883
10
-400.00000000000006
20
114.01094890510883
10
-400.00000000000006
20
141.0109489051089
10
-406
20
141.01094890510888
10
-406
20
171.01094890510888
10
-400.00000000000006
20
171.01094890510882
10
-400.00000000000006
20
186.06079360149053
10
-395.15000000000009
20
186.06079360149064
10
-395.15000000000009
20
184.91079360149052
10
-392.85000000000014
20
184.91079360149052
10
-392.85000000000014
20
186.0607936014907
10
-390.00000000000006
20
186.06079360149079
10
-390.00000000000006
20
188.96079360149054
10
-392.85000000000014
20
188.96079360149048
10
-392.85000000000014
20
190.11079360149051
10
-395.15000000000009
20
190.11079360149051
10
-395.15000000000009
20
188.96079360149048
10
-400.00000000000006
20
188.96079360149045
10
-400.00000000000006
20
204.01063829787222
10
-406.00000000000017
20
204.01063829787222
10
-406.00000000000017
20
234.01063829787222
10
-400.00000000000006
20
234.01063829787222
10
-400.00000000000006
20
261.01063829787228
10
-406.00000000000017
20
261.01063829787222
10
-406.00000000000017
20
291.01063829787222
10
-400.00000000000011
20
291.01063829787222
10
-400.00000000000011
20
303.06063829787217
10
-395.15000000000009
20
303.06063829787217
10
-395.15000000000009
20
301.91063829787203
10
-392.85000000000014
20
301.91063829787203
10
-392.85000000000014
20
303.06063829787217
10
-390.00000000000011
20
303.06063829787217
10
-390.00000000000011
20
305.96063829787215
10
-392.85000000000014
20
305.96063829787215
10
-392.85000000000014
20
307.11063829787201
10
-395.15000000000009
20
307.11063829787201
10
-395.15000000000009
20
305.96063829787215
10
-400.00000000000011
20
305.96063829787215
10
-400.00000000000011
20
318.01063829787216
10
-406.00000000000017
20
318.01063829787216
10
-406.00000000000017
20
348.01063829787216
10
-400.00000000000011
20
348.01063829787216
10
-400.00000000000011
20
374.9999999999992
10
-378.00000000000011
20
374.99999999999932
10
-378.00000000000011
20
380.99999999999989
10
-338.00000000000011
20
380.99999999999989
10
-338.00000000000011
20
374.99999999999937
10
-321.95000000000005
20
374.99999999999937
10
-321.95000000000022
20
370.14999999999935
10
-323.09999999999997
20
370.14999999999935
10
-323.09999999999997
20
367.8499999999994
10
-321.95000000000039
20
367.8499999999994
10
-321.95000000000044
20
364.99999999999943
10
-319.05000000000007
20
364.99999999999943
10
-319.05000000000007
20
367.8499999999994
10
-317.90000000000003
20
367.8499999999994
10
-317.90000000000003
20
370.14999999999935
10
-319.05000000000007
20
370.14999999999935
10
-319.05000000000007
20
374.99999999999937
10
-303.00000000000011
20
374.99999999999943
10
-303.00000000000011
20
380.99999999999989
10
-263.00000000000011
20
380.99999999999989
10
-263.00000000000011
20
374.99999999999949
10
-219.99999999999972
20
374.99999999999937
10
-219.99999999999977
20
380.99999999999989
10
-180.00000000000028
20
380.99999999999989
10
-180.00000000000028
20
374.99999999999977
10
-136.99999999999994
20
374.99999999999989
10
-136.99999999999994
20
380.99999999999994
10
-96.999999999999957
20
381
10
-96.999999999999957
20
374.99999999999994
10
-80.949999999999918
20
374.99999999999994
10
-80.949999999999775
20
370.14999999999992
10
-82.099999999999966
20
370.14999999999992
10
-82.099999999999937
20
367.84999999999991
10
-80.949999999999704
20
367.84999999999991
10
-80.949999999999633
20
364.99999999999994
10
-78.049999999999926
20
364.99999999999994
10
-78.049999999999926
20
367.84999999999997
10
-76.899999999999977
20
367.84999999999997
10
-76.899999999999977
20
370.14999999999992
10
-78.049999999999955
20
370.14999999999992
10
-78.049999999999997
20
374.99999999999994
10
-61.999999999999922
20
374.99999999999994
10
-61.999999999999922
20
381
10
-21.999999999999922
20
381.00000000000011
10
-21.999999999999922
20
375
10
3.5527136788005009e-14
20
375
10
-3.5527136788005009e-14
20
348.01063829787245
10
6.0000000000002629
20
348.01063829787245
10
6.0000000000002629
20
318.01063829787239
10
-1.4210854715202004e-13
20
318.01063829787239
10
7.1054273576010019e-14
20
305.96063829787215
10
-4.8499999999999943
20
305.96063829787215
10
-4.8499999999999943
20
307.11063829787201
10
-7.1500000000000341
20
307.11063829787201
10
-7.1500000000000341
20
305.96063829787215
10
-9.9999999999999289
20
305.96063829787215
10
-9.9999999999999289
20
303.06063829787217
10
-7.1500000000000341
20
303.06063829787217
10
-7.1500000000000341
20
301.91063829787203
10
-4.8499999999999943
20
301.91063829787203
10
-4.8499999999999943
20
303.06063829787217
10
7.1054273576010019e-14
20
303.06063829787217
10
-2.4868995751603507e-13
20
291.01063829787245
10
6.0000000000002274
20
291.01063829787245
10
6.0000000000002984
20
261.01063829787245
10
-3.5527136788005009e-13
20
261.01063829787256
10
-4.2632564145606011e-13
20
234.01063829787248
10
6.000000000000334
20
234.01063829787248
10
6.000000000000334
20
204.01063829787248
10
-5.3290705182007514e-13
20
204.01063829787248
10
-7.1054273576010019e-14
20
188.96079360149045
10
-4.8500000000001364
20
188.96079360149048
10
-4.8500000000001364
20
190.11079360149051
10
-7.1500000000000341
20
190.11079360149051
10
-7.1500000000000341
20
188.96079360149048
10
-10.000000000000071
20
188.96079360149054
10
-10.000000000000071
20
186.06079360149079
10
-7.1500000000000341
20
186.0607936014907
10
-7.1500000000000341
20
184.91079360149052
10
-4.8500000000001364
20
184.91079360149052
10
-4.8500000000001364
20
186.06079360149064
10
-7.1054273576010019e-14
20
186.06079360149053
10
-6.7501559897209518e-13
20
171.01094890510907
10
6.0000000000002274
20
171.0109489051091
10
6.0000000000002984
20
141.01094890510916
10
-7.460698725481052e-13
20
141.01094890510916
10
-8.5265128291212022e-13
20
114.01094890510907
10
6.000000000000405
20
114.01094890510907
10
6.000000000000405
20
84.010948905109075
10
-9.5923269327613525e-13
20
84.010948905109075
10
-1.4210854715202004e-13
20
71.960948905108793
10
-4.8500000000001009
20
71.960948905108822
10
-4.8500000000001009
20
73.110948905108884
10
-7.1500000000001407
20
73.110948905108884
10
-7.1500000000001407
20
71.960948905108822
10
-10.000000000000142
20
71.960948905108864
10
-10.000000000000142
20
69.060948905109257
10
-7.1500000000001407
20
69.060948905109157
10
-7.1500000000001407
20
67.910948905108881
10
-4.8500000000001009
20
67.910948905108881
10
-4.8500000000001009
20
69.060948905109043
10
-1.4210854715202004e-13
20
69.060948905108873
10
-1.0658141036401503e-12
20
57.010948905109096
10
6.0000000000004405
20
57.010948905109124
10
6.0000000000005116
20
27.010948905109093
0
ENDSEC
0
SECTION
2
OBJECTS
0
DICTIONARY
5
C
100
AcDbDictionary
3
ACAD_GROUP
350
D
3
ACAD_MLINESTYLE
350
17
0
DICTIONARY
5
D
100
AcDbDictionary
0
DICTIONARY
5
1A
330
C
100
AcDbDictionary
0
DICTIONARY
5
17
100
AcDbDictionary
0
ENDSEC
0
EOF
