0
SECTION
2
HEADER
9
$INSUNITS
70
4
9
$ACADVER
1
AC1014
9
$HANDSEED
5
FFFF
0
ENDSEC
0
SECTION
2
TABLES
0
TABLE
2
VPORT
5
8
100
AcDbSymbolTable
0
ENDTAB
0
TABLE
2
LTYPE
5
5
100
AcDbSymbolTable
0
LTYPE
5
14
100
AcDbSymbolTableRecord
100
AcDbLinetypeTableRecord
2
BYBLOCK
70
0
0
LTYPE
5
15
100
AcDbSymbolTableRecord
100
AcDbLinetypeTableRecord
2
BYLAYER
70
0
0
ENDTAB
0
TABLE
2
LAYER
5
2
100
AcDbSymbolTable
70
2
0
LAYER
5
50
100
AcDbSymbolTableRecord
100
AcDbLayerTableRecord
2
0
70
0
6
CONTINUOUS
0
ENDTAB
0
TABLE
2
STYLE
5
3
100
AcDbSymbolTable
70
1
0
STYLE
5
11
100
AcDbSymbolTableRecord
100
AcDbTextStyleTableRecord
2
STANDARD
70
0
0
ENDTAB
0
TABLE
2
VIEW
5
6
100
AcDbSymbolTable
70
0
0
ENDTAB
0
TABLE
2
UCS
5
7
100
AcDbSymbolTable
70
0
0
ENDTAB
0
TABLE
2
APPID
5
9
100
AcDbSymbolTable
70
2
0
APPID
5
12
100
AcDbSymbolTableRecord
100
AcDbRegAppTableRecord
2
ACAD
70
0
0
ENDTAB
0
TABLE
2
DIMSTYLE
5
A
100
AcDbSymbolTable
70
1
0
ENDTAB
0
TABLE
2
BLOCK_RECORD
5
1
100
AcDbSymbolTable
70
1
0
BLOCK_RECORD
5
1F
100
AcDbSymbolTableRecord
100
AcDbBlockTableRecord
2
*MODEL_SPACE
0
BLOCK_RECORD
5
1B
100
AcDbSymbolTableRecord
100
AcDbBlockTableRecord
2
*PAPER_SPACE
0
ENDTAB
0
ENDSEC
0
SECTION
2
BLOCKS
0
BLOCK
5
20
100
AcDbEntity
100
AcDbBlockBegin
2
*MODEL_SPACE
0
ENDBLK
5
21
100
AcDbEntity
100
AcDbBlockEnd
0
BLOCK
5
1C
100
AcDbEntity
100
AcDbBlockBegin
2
*PAPER_SPACE
0
ENDBLK
5
1D
100
AcDbEntity
100
AcDbBlockEnd
0
ENDSEC
0
SECTION
2
ENTITIES
0
LWPOLYLINE
5
100
100
AcDbEntity
8
0
100
AcDbPolyline
90
52
70
1
43
0.0
10
55.96999999990318
20
-31.449999999994404
10
60.819999999903303
20
-31.449999999994702
10
60.819999999903366
20
-32.649999999994456
10
63.119999999903854
20
-32.649999999994606
10
63.119999999903811
20
-31.449999999994979
10
65.969999999903294
20
-31.449999999995129
10
65.969999999903195
20
-28.54999999999422
10
63.119999999903726
20
-28.549999999994071
10
63.11999999990369
20
-27.449999999994226
10
60.819999999903096
20
-27.449999999994787
10
60.81999999990316
20
-28.549999999994085
10
55.969999999903379
20
-28.549999999993929
10
55.969999999903742
20
-22.999999999996295
10
49.999999999906031
20
-22.999999999993861
10
49.999999999906144
20
-1.9999999999938991
10
55.969999999905127
20
-1.9999999999963336
10
55.969999999905902
20
10.000000000008351
10
136.46999999990595
20
10.000000000005683
10
136.46999999990589
20
-10.000000000000757
10
396.46999999990902
20
-9.9999999999957367
10
396.46999999990351
20
9.9999999999973799
10
467.96999999990601
20
10.000000000000142
10
467.96999999998025
20
-1.9999999999647669
10
473.93999999990092
20
-1.999999999961517
10
473.93999999998243
20
-22.999999999961478
10
467.96999999999025
20
-22.999999999964729
10
467.96999999990828
20
-28.54999999999508
10
463.11999999990871
20
-28.54999999999535
10
463.11999999990894
20
-27.449999999995221
10
460.81999999990853
20
-27.449999999994219
10
460.81999999990848
20
-28.549999999995499
10
457.9699999999084
20
-28.549999999995634
10
457.96999999990823
20
-31.4499999999964
10
460.81999999990819
20
-31.449999999996265
10
460.81999999990813
20
-32.649999999995309
10
463.11999999990809
20
-32.649999999995174
10
463.11999999990832
20
-31.449999999996109
10
467.96999999990823
20
-31.449999999995839
10
467.96999999998775
20
-36.99999999996065
10
473.93999999999653
20
-36.999999999959954
10
473.93999999998789
20
-57.999999999959911
10
467.9700000000318
20
-57.999999999960608
10
467.96999999989998
20
-69.999999999972331
10
407.96999999989993
20
-69.999999999975273
10
407.96999999988736
20
-54.999999999979167
10
115.96999999990075
20
-54.999999999989626
10
115.96999999990069
20
-69.999999999989527
10
55.969999999900622
20
-69.999999999992184
10
55.969999999861983
20
-57.99999999999217
10
49.999999999905825
20
-57.999999999992298
10
49.999999999894143
20
-36.99999999999234
10
55.969999999902818
20
-36.999999999992212
0
LWPOLYLINE
5
101
100
AcDbEntity
8
0
100
AcDbPolyline
90
4
70
1
43
0.0
10
110.4999999999059
20
5.9699999999998337
10
75.49999999990591
20
5.969999999999942
10
75.499999999905882
20
1.2455193295289911e-12
10
110.49999999990588
20
9.9475983006414026e-13
0
LWPOLYLINE
5
102
100
AcDbEntity
8
0
100
AcDbPolyline
90
4
70
1
43
0.0
10
448.43999999996254
20
2.5579538487363607e-12
10
448.43999999996254
20
5.969999999999942
10
413.43999999996254
20
5.969999999999942
10
413.43999999996254
20
2.3823877067451516e-12
0
ENDSEC
0
SECTION
2
OBJECTS
0
DICTIONARY
5
C
100
AcDbDictionary
3
ACAD_GROUP
350
D
3
ACAD_MLINESTYLE
350
17
0
DICTIONARY
5
D
100
AcDbDictionary
0
DICTIONARY
5
1A
330
C
100
AcDbDictionary
0
DICTIONARY
5
17
100
AcDbDictionary
0
ENDSEC
0
EOF
