0
SECTION
2
HEADER
9
$INSUNITS
70
4
9
$ACADVER
1
AC1014
9
$HANDSEED
5
FFFF
0
ENDSEC
0
SECTION
2
TABLES
0
TABLE
2
VPORT
5
8
100
AcDbSymbolTable
0
ENDTAB
0
TABLE
2
LTYPE
5
5
100
AcDbSymbolTable
0
LTYPE
5
14
100
AcDbSymbolTableRecord
100
AcDbLinetypeTableRecord
2
BYBLOCK
70
0
0
LTYPE
5
15
100
AcDbSymbolTableRecord
100
AcDbLinetypeTableRecord
2
BYLAYER
70
0
0
ENDTAB
0
TABLE
2
LAYER
5
2
100
AcDbSymbolTable
70
2
0
LAYER
5
50
100
AcDbSymbolTableRecord
100
AcDbLayerTableRecord
2
0
70
0
6
CONTINUOUS
0
ENDTAB
0
TABLE
2
STYLE
5
3
100
AcDbSymbolTable
70
1
0
STYLE
5
11
100
AcDbSymbolTableRecord
100
AcDbTextStyleTableRecord
2
STANDARD
70
0
0
ENDTAB
0
TABLE
2
VIEW
5
6
100
AcDbSymbolTable
70
0
0
ENDTAB
0
TABLE
2
UCS
5
7
100
AcDbSymbolTable
70
0
0
ENDTAB
0
TABLE
2
APPID
5
9
100
AcDbSymbolTable
70
2
0
APPID
5
12
100
AcDbSymbolTableRecord
100
AcDbRegAppTableRecord
2
ACAD
70
0
0
ENDTAB
0
TABLE
2
DIMSTYLE
5
A
100
AcDbSymbolTable
70
1
0
ENDTAB
0
TABLE
2
BLOCK_RECORD
5
1
100
AcDbSymbolTable
70
1
0
BLOCK_RECORD
5
1F
100
AcDbSymbolTableRecord
100
AcDbBlockTableRecord
2
*MODEL_SPACE
0
BLOCK_RECORD
5
1B
100
AcDbSymbolTableRecord
100
AcDbBlockTableRecord
2
*PAPER_SPACE
0
ENDTAB
0
ENDSEC
0
SECTION
2
BLOCKS
0
BLOCK
5
20
100
AcDbEntity
100
AcDbBlockBegin
2
*MODEL_SPACE
0
ENDBLK
5
21
100
AcDbEntity
100
AcDbBlockEnd
0
BLOCK
5
1C
100
AcDbEntity
100
AcDbBlockBegin
2
*PAPER_SPACE
0
ENDBLK
5
1D
100
AcDbEntity
100
AcDbBlockEnd
0
ENDSEC
0
SECTION
2
ENTITIES
0
LWPOLYLINE
5
100
100
AcDbEntity
8
0
100
AcDbPolyline
90
196
70
1
43
0.0
10
-519.91999999999985
20
-55.969999999999999
10
-519.91999999999973
20
-60.819999999999972
10
-521.1199999999991
20
-60.820000000000086
10
-521.11999999999898
20
-63.119999999999948
10
-519.91999999999962
20
-63.119999999999905
10
-519.9199999999995
20
-65.970000000000013
10
-517.01999999999953
20
-65.969999999999686
10
-517.01999999999975
20
-63.119999999999806
10
-515.91999999999894
20
-63.11999999999977
10
-515.91999999999905
20
-60.819999999999574
10
-517.01999999999987
20
-60.819999999999681
10
-517.0200000000001
20
-55.969999999999999
10
-496.46999999999997
20
-55.969999999999999
10
-496.46999999999997
20
-50
10
-455.47000000000003
20
-50
10
-455.47000000000003
20
-55.969999999999985
10
-434.92000000000007
20
-55.969999999999999
10
-434.92000000000013
20
-60.820000000000064
10
-436.06999999999999
20
-60.820000000000064
10
-436.06999999999999
20
-63.120000000000054
10
-434.92000000000019
20
-63.120000000000054
10
-434.92000000000024
20
-65.969999999999999
10
-432.02000000000004
20
-65.969999999999999
10
-432.01999999999998
20
-63.12000000000004
10
-430.86999999999955
20
-63.12000000000004
10
-430.86999999999995
20
-60.82000000000005
10
-432.01999999999992
20
-60.82000000000005
10
-432.01999999999987
20
-55.969999999999999
10
-411.46999999999991
20
-55.969999999999999
10
-411.46999999999997
20
-50
10
-370.47000000000003
20
-50
10
-370.46999999999997
20
-55.969999999999999
10
-280
20
-55.970000000000013
10
-280
20
-119.97000000000003
10
-199
20
-119.97000000000003
10
-199
20
-75.970000000000013
10
-225
20
-75.970000000000013
10
-225
20
-55.970000000000013
10
-229.52999999999997
20
-55.970000000000006
10
-229.53
20
-50
10
-188.52999999999997
20
-50
10
-188.53000000000003
20
-55.969999999999999
10
-167.97999999999985
20
-55.969999999999999
10
-167.97999999999962
20
-60.820000000000036
10
-169.17999999999981
20
-60.820000000000043
10
-169.17999999999981
20
-63.119999999999919
10
-167.97999999999951
20
-63.119999999999941
10
-167.97999999999939
20
-65.969999999999999
10
-165.07999999999984
20
-65.969999999999999
10
-165.07999999999993
20
-63.119999999999983
10
-163.97999999999996
20
-63.120000000000005
10
-163.97999999999985
20
-60.819999999999993
10
-165.07999999999998
20
-60.82
10
-165.08000000000013
20
-55.969999999999999
10
-144.53
20
-55.970000000000006
10
-144.53
20
-50
10
-103.53
20
-50
10
-103.53000000000002
20
-55.970000000000006
10
-82.979999999999961
20
-55.970000000000013
10
-82.979999999999961
20
-60.811672457470365
10
-84.162571833107918
20
-60.8113357492605
10
-84.162574300039964
20
-60.820000000000014
10
-84.179999999999993
20
-60.820000000000014
10
-84.180000000000092
20
-63.11999999999999
10
-82.97999999999999
20
-63.11999999999999
10
-82.97999999999999
20
-65.970000000000013
10
-80.079999999999984
20
-65.970000000000141
10
-80.079999999999984
20
-65.962498369812351
10
-80.014038336952268
20
-65.962517150771674
10
-80.013229000187621
20
-63.120000000000012
10
-78.980000000000004
20
-63.120000000000012
10
-78.980000000000004
20
-63.11281145220336
10
-78.863226916277839
20
-63.112844700463533
10
-78.862572047939466
20
-60.812844793692314
10
-80.012572001325111
20
-60.812517359523149
10
-80.011193213748953
20
-55.970000000000006
10
-59.530000000000001
20
-55.970000000000013
10
-59.53000000000003
20
-50
10
-18.530000000000015
20
-50
10
-18.530000000000001
20
-55.970000000000013
10
-10
20
-55.970000000000013
10
-10.000000000000062
20
-74.999999999999972
10
-4.0300000000000447
20
-74.999999999999972
10
-4.0300000000000447
20
-110.99999999999997
10
-10.00000000000005
20
-110.99999999999997
10
-10
20
-136.46999999999997
10
-50.000000000000036
20
-136.46999999999997
10
-50
20
-396.46999999999997
10
-10
20
-396.46999999999997
10
-9.9999999999760636
20
-412.93999999996356
10
-4.0299999999760576
20
-412.93999999996265
10
-4.0299999999703395
20
-448.93999999996265
10
-9.9999999999703562
20
-448.93999999996356
10
-10
20
-467.97000000000003
10
-18.529999999967266
20
-467.9699999999649
10
-18.529999999966336
20
-473.93999999996487
10
-59.52999999996635
20
-473.93999999997141
10
-59.529999999967281
20
-467.96999999997138
10
-80.011193213748953
20
-467.97000000000003
10
-80.012572001325111
20
-463.1274826404769
10
-78.862572047939466
20
-463.12715520630775
10
-78.863226916277839
20
-460.82715529953651
10
-78.980000000000032
20
-460.82718854779671
10
-78.980000000000032
20
-460.82000000000005
10
-80.013229000187621
20
-460.82000000000005
10
-80.014038336952268
20
-457.97748284922841
10
-80.079999999999984
20
-457.9775016301877
10
-80.079999999999984
20
-457.96999999999991
10
-82.980000000000018
20
-457.97000000000003
10
-82.980000000000018
20
-460.82000000000005
10
-84.180000000000064
20
-460.82000000000005
10
-84.17999999999995
20
-463.12000000000006
10
-84.162574300039964
20
-463.12000000000006
10
-84.162571833107918
20
-463.12866425073958
10
-82.980000000000004
20
-463.12832754252963
10
-82.980000000000004
20
-467.97000000000003
10
-103.52999999996729
20
-467.96999999997837
10
-103.52999999996634
20
-473.9399999999784
10
-144.52999999996635
20
-473.93999999998493
10
-144.52999999996726
20
-467.96999999998491
10
-165.08000000000013
20
-467.97000000000003
10
-165.07999999999998
20
-463.12000000000006
10
-163.97999999999973
20
-463.12000000000006
10
-163.97999999999985
20
-460.82000000000005
10
-165.07999999999993
20
-460.82000000000005
10
-165.07999999999984
20
-457.97000000000003
10
-167.97999999999939
20
-457.97000000000003
10
-167.97999999999951
20
-460.82000000000016
10
-169.17999999999975
20
-460.82000000000016
10
-169.17999999999975
20
-463.12000000000006
10
-167.97999999999962
20
-463.12000000000006
10
-167.97999999999985
20
-467.97000000000003
10
-188.52999999996729
20
-467.96999999999196
10
-188.52999999996632
20
-473.93999999999187
10
-229.52999999996626
20
-473.93999999999841
10
-229.52999999996723
20
-467.96999999999844
10
-225
20
-467.97000000000003
10
-225
20
-458.97000000000003
10
-192.99999999999997
20
-458.97000000000003
10
-192.99999999999997
20
-413.96999999999997
10
-280
20
-413.96999999999997
10
-280
20
-467.97000000000003
10
-370.46999999996729
20
-467.97000000002083
10
-370.46999999996638
20
-473.9400000000208
10
-411.46999999996632
20
-473.94000000002734
10
-411.46999999996723
20
-467.97000000002731
10
-432.01999999999987
20
-467.97000000000003
10
-432.01999999999992
20
-463.12
10
-430.87000000000012
20
-463.12
10
-430.86999999999961
20
-460.81999999999999
10
-432.01999999999998
20
-460.81999999999999
10
-432.02000000000004
20
-457.97000000000003
10
-434.92000000000024
20
-457.97000000000003
10
-434.92000000000019
20
-460.81999999999994
10
-436.07000000000016
20
-460.81999999999994
10
-436.07000000000016
20
-463.12
10
-434.92000000000013
20
-463.12
10
-434.92000000000007
20
-467.97000000000003
10
-455.46999999996734
20
-467.97000000003436
10
-455.46999999996638
20
-473.94000000003427
10
-496.46999999996632
20
-473.94000000004087
10
-496.46999999996729
20
-467.97000000004084
10
-517.02000000000044
20
-467.97000000000003
10
-517.0200000000001
20
-463.12000000000035
10
-515.91999999999939
20
-463.1200000000004
10
-515.91999999999916
20
-460.82000000000005
10
-517.01999999999987
20
-460.82000000000005
10
-517.01999999999975
20
-457.97000000000048
10
-519.91999999999939
20
-457.97000000000003
10
-519.91999999999939
20
-460.81999999999994
10
-521.11999999999932
20
-460.81999999999994
10
-521.11999999999944
20
-463.11999999999989
10
-519.9199999999995
20
-463.12000000000006
10
-519.91999999999962
20
-467.97000000000003
10
-540.4699999999674
20
-467.97000000004789
10
-540.46999999996638
20
-473.9400000000478
10
-581.46999999996626
20
-473.94000000005434
10
-581.46999999996729
20
-467.97000000005431
10
-590
20
-467.97000000000003
10
-589.99999999997033
20
-448.9400000000557
10
-595.96999999997036
20
-448.94000000005661
10
-595.96999999997604
20
-412.94000000005661
10
-589.99999999997601
20
-412.94000000005576
10
-590
20
-396.47000000000014
10
-550
20
-396.47000000000003
10
-550
20
-136.47000000000006
10
-590
20
-136.47000000000006
10
-590
20
-111.00000000000001
10
-595.97000000000003
20
-111.00000000000001
10
-595.97000000000003
20
-75
10
-590
20
-75.000000000000014
10
-590
20
-55.970000000000013
10
-581.47000000000003
20
-55.969999999999999
10
-581.47000000000003
20
-50
10
-540.47000000000003
20
-50
10
-540.47000000000003
20
-55.969999999999999
0
CIRCLE
5
101
100
AcDbEntity
8
0
100
AcDbCircle
10
-283.25
20
-403.97000000000361
30
0
40
2.1000000000000085
210
0
220
-0
230
1
0
CIRCLE
5
102
100
AcDbEntity
8
0
100
AcDbCircle
10
-546.5
20
-403.97000000000565
30
0
40
2.1000000000000085
210
0
220
-0
230
1
0
CIRCLE
5
103
100
AcDbEntity
8
0
100
AcDbCircle
10
-53.500000000000185
20
-112.96999999999983
30
0
40
2.0999999999999996
210
0
220
-0
230
1
0
CIRCLE
5
104
100
AcDbEntity
8
0
100
AcDbCircle
10
-546.5
20
-128.96999999999909
30
0
40
2.1000000000000085
210
0
220
-0
230
1
0
LWPOLYLINE
5
105
100
AcDbEntity
8
0
100
AcDbPolyline
90
4
70
1
43
0.0
10
-144.50000000000006
20
-128.22000000000054
42
-0.99999999999999989
10
-144.5
20
-132.12000000000049
10
-161.5
20
-132.1200000000006
42
-0.99999999999999989
10
-161.50000000000006
20
-128.22000000000065
0
LWPOLYLINE
5
106
100
AcDbEntity
8
0
100
AcDbPolyline
90
4
70
1
43
0.0
10
-91.500000000000043
20
-128.22000000000003
42
-0.99999999999999989
10
-91.5
20
-132.12
10
-108.50000000000001
20
-132.1200000000002
42
-0.99999999999999989
10
-108.50000000000006
20
-128.22000000000014
0
CIRCLE
5
107
100
AcDbEntity
8
0
100
AcDbCircle
10
-283.25
20
-128.96999999999935
30
0
40
2.1000000000000085
210
0
220
-0
230
1
0
CIRCLE
5
108
100
AcDbEntity
8
0
100
AcDbCircle
10
-20
20
-112.96999999999997
30
0
40
2.0999999999999996
210
0
220
-0
230
1
0
CIRCLE
5
109
100
AcDbEntity
8
0
100
AcDbCircle
10
-20
20
-403.97000000000054
30
0
40
2.0999999999999996
210
0
220
-0
230
1
0
CIRCLE
5
110
100
AcDbEntity
8
0
100
AcDbCircle
10
-316.74999999999994
20
-403.97000000000395
30
0
40
2.1000000000000085
210
0
220
-0
230
1
0
LWPOLYLINE
5
111
100
AcDbEntity
8
0
100
AcDbPolyline
90
4
70
1
43
0.0
10
-31.999999999999993
20
-61.970000000000027
10
-46.999999999999993
20
-61.970000000000027
10
-46.999999999999993
20
-121.97000000000003
10
-31.999999999999993
20
-121.97000000000003
0
LWPOLYLINE
5
112
100
AcDbEntity
8
0
100
AcDbPolyline
90
4
70
1
43
0.0
10
-31.999999999999993
20
-411.97000000000003
10
-46.999999999999993
20
-411.97000000000003
10
-46.999999999999993
20
-461.97000000000003
10
-31.999999999999993
20
-461.97000000000003
0
CIRCLE
5
113
100
AcDbEntity
8
0
100
AcDbCircle
10
-53.5
20
-403.97000000000099
30
0
40
2.0999999999999996
210
0
220
-0
230
1
0
CIRCLE
5
114
100
AcDbEntity
8
0
100
AcDbCircle
10
-316.75000000000011
20
-128.96999999999932
30
0
40
2.1000000000000085
210
0
220
-0
230
1
0
CIRCLE
5
115
100
AcDbEntity
8
0
100
AcDbCircle
10
-580
20
-403.97000000000571
30
0
40
2.1000000000000085
210
0
220
-0
230
1
0
CIRCLE
5
116
100
AcDbEntity
8
0
100
AcDbCircle
10
-580
20
-128.96999999999903
30
0
40
2.1000000000000085
210
0
220
-0
230
1
0
ENDSEC
0
SECTION
2
OBJECTS
0
DICTIONARY
5
C
100
AcDbDictionary
3
ACAD_GROUP
350
D
3
ACAD_MLINESTYLE
350
17
0
DICTIONARY
5
D
100
AcDbDictionary
0
DICTIONARY
5
1A
330
C
100
AcDbDictionary
0
DICTIONARY
5
17
100
AcDbDictionary
0
ENDSEC
0
EOF
