0
SECTION
2
HEADER
9
$INSUNITS
70
4
9
$ACADVER
1
AC1014
9
$HANDSEED
5
FFFF
0
ENDSEC
0
SECTION
2
TABLES
0
TABLE
2
VPORT
5
8
100
AcDbSymbolTable
0
ENDTAB
0
TABLE
2
LTYPE
5
5
100
AcDbSymbolTable
0
LTYPE
5
14
100
AcDbSymbolTableRecord
100
AcDbLinetypeTableRecord
2
BYBLOCK
70
0
0
LTYPE
5
15
100
AcDbSymbolTableRecord
100
AcDbLinetypeTableRecord
2
BYLAYER
70
0
0
ENDTAB
0
TABLE
2
LAYER
5
2
100
AcDbSymbolTable
70
2
0
LAYER
5
50
100
AcDbSymbolTableRecord
100
AcDbLayerTableRecord
2
0
70
0
6
CONTINUOUS
0
ENDTAB
0
TABLE
2
STYLE
5
3
100
AcDbSymbolTable
70
1
0
STYLE
5
11
100
AcDbSymbolTableRecord
100
AcDbTextStyleTableRecord
2
STANDARD
70
0
0
ENDTAB
0
TABLE
2
VIEW
5
6
100
AcDbSymbolTable
70
0
0
ENDTAB
0
TABLE
2
UCS
5
7
100
AcDbSymbolTable
70
0
0
ENDTAB
0
TABLE
2
APPID
5
9
100
AcDbSymbolTable
70
2
0
APPID
5
12
100
AcDbSymbolTableRecord
100
AcDbRegAppTableRecord
2
ACAD
70
0
0
ENDTAB
0
TABLE
2
DIMSTYLE
5
A
100
AcDbSymbolTable
70
1
0
ENDTAB
0
TABLE
2
BLOCK_RECORD
5
1
100
AcDbSymbolTable
70
1
0
BLOCK_RECORD
5
1F
100
AcDbSymbolTableRecord
100
AcDbBlockTableRecord
2
*MODEL_SPACE
0
BLOCK_RECORD
5
1B
100
AcDbSymbolTableRecord
100
AcDbBlockTableRecord
2
*PAPER_SPACE
0
ENDTAB
0
ENDSEC
0
SECTION
2
BLOCKS
0
BLOCK
5
20
100
AcDbEntity
100
AcDbBlockBegin
2
*MODEL_SPACE
0
ENDBLK
5
21
100
AcDbEntity
100
AcDbBlockEnd
0
BLOCK
5
1C
100
AcDbEntity
100
AcDbBlockBegin
2
*PAPER_SPACE
0
ENDBLK
5
1D
100
AcDbEntity
100
AcDbBlockEnd
0
ENDSEC
0
SECTION
2
ENTITIES
0
CIRCLE
5
100
100
AcDbEntity
8
0
100
AcDbCircle
10
433.46999999999991
20
2.9849999999999186
30
0
40
1.4500000000000313
210
0
220
-0
230
1
0
CIRCLE
5
101
100
AcDbEntity
8
0
100
AcDbCircle
10
166.52999999999997
20
2.9849999999999701
30
0
40
1.4499999999999957
210
0
220
-0
230
1
0
CIRCLE
5
102
100
AcDbEntity
8
0
100
AcDbCircle
10
187.00000000000003
20
-27.500000000000014
30
0
40
1.4499999999999957
210
0
220
-0
230
1
0
CIRCLE
5
103
100
AcDbEntity
8
0
100
AcDbCircle
10
592.98500000000001
20
-30.000000000000302
30
0
40
1.4500000000000313
210
0
220
-0
230
1
0
CIRCLE
5
104
100
AcDbEntity
8
0
100
AcDbCircle
10
518.47000000000003
20
2.9849999999999035
30
0
40
1.4500000000000313
210
0
220
-0
230
1
0
CIRCLE
5
105
100
AcDbEntity
8
0
100
AcDbCircle
10
81.530000000000001
20
2.9849999999999852
30
0
40
1.4499999999999957
210
0
220
-0
230
1
0
CIRCLE
5
106
100
AcDbEntity
8
0
100
AcDbCircle
10
7.0150000000000725
20
-30.000000000000266
30
0
40
1.4500000000000002
210
0
220
-0
230
1
0
CIRCLE
5
107
100
AcDbEntity
8
0
100
AcDbCircle
10
413
20
-27.500000000000068
30
0
40
1.4500000000000313
210
0
220
-0
230
1
0
LWPOLYLINE
5
108
100
AcDbEntity
8
0
100
AcDbPolyline
90
4
70
1
43
0.0
10
416
20
-19.250000000000036
10
416
20
-6.7500000000000355
10
410
20
-6.7500000000000338
10
410
20
-19.250000000000032
0
LWPOLYLINE
5
109
100
AcDbEntity
8
0
100
AcDbPolyline
90
4
70
1
43
0.0
10
540.97000000000003
20
-8.5487172896137054e-14
10
580.97000000000003
20
-1.6653345369377348e-13
10
580.97000000000003
20
5.9699999999999074
10
540.97000000000003
20
5.9699999999999065
0
LWPOLYLINE
5
110
100
AcDbEntity
8
0
100
AcDbPolyline
90
4
70
1
43
0.0
10
104.03
20
-1.6653345369377348e-14
10
144.03
20
-3.1086244689504383e-14
10
144.03
20
5.9699999999999775
10
104.03
20
5.9699999999999864
0
LWPOLYLINE
5
111
100
AcDbEntity
8
0
100
AcDbPolyline
90
4
70
1
43
0.0
10
10.000000000000078
20
-37.500000000000526
10
4.0300000000000642
20
-37.500000000000526
10
4.030000000000058
20
-57.500000000000533
10
10.000000000000073
20
-57.500000000000526
0
LWPOLYLINE
5
112
100
AcDbEntity
8
0
100
AcDbPolyline
90
4
70
1
43
0.0
10
189.02999999999997
20
-3.219646771412954e-14
10
229.02999999999997
20
-4.8849813083506888e-14
10
229.02999999999997
20
5.9699999999999633
10
189.02999999999997
20
5.9699999999999731
0
LWPOLYLINE
5
113
100
AcDbEntity
8
0
100
AcDbPolyline
90
4
70
1
43
0.0
10
590
20
-37.50000000000032
10
590
20
-57.50000000000032
10
595.97000000000003
20
-57.500000000000654
10
595.97000000000003
20
-37.500000000000639
0
LWPOLYLINE
5
114
100
AcDbEntity
8
0
100
AcDbPolyline
90
4
70
1
43
0.0
10
190.00000000000003
20
-19.250000000000064
10
190.00000000000003
20
-6.7499999999998987
10
184.00000000000006
20
-6.7500000000000622
10
184.00000000000006
20
-19.250000000000064
0
LWPOLYLINE
5
115
100
AcDbEntity
8
0
100
AcDbPolyline
90
4
70
1
43
0.0
10
410
20
-48.250000000000099
10
416
20
-48.250000000000099
10
416
20
-35.750000000000107
10
410
20
-35.750000000000099
0
LWPOLYLINE
5
116
100
AcDbEntity
8
0
100
AcDbPolyline
90
4
70
1
43
0.0
10
455.97000000000003
20
-7.3274719625260332e-14
10
495.97000000000003
20
-1.3766765505351941e-13
10
495.97000000000003
20
5.9699999999999225
10
455.97000000000003
20
5.9699999999999207
0
LWPOLYLINE
5
117
100
AcDbEntity
8
0
100
AcDbPolyline
90
4
70
1
43
0.0
10
19.030000000000005
20
-2.2204460492503131e-15
10
59.030000000000001
20
-8.8817841970012523e-15
10
59.030000000000001
20
5.9699999999999909
10
19.030000000000005
20
5.9699999999999971
0
LWPOLYLINE
5
118
100
AcDbEntity
8
0
100
AcDbPolyline
90
4
70
1
43
0.0
10
10.000000000000085
20
-2.4999999999999925
10
4.0300000000000722
20
-2.5000000000000044
10
4.0300000000000669
20
-22.500000000000007
10
10.000000000000082
20
-22.5
0
LWPOLYLINE
5
119
100
AcDbEntity
8
0
100
AcDbPolyline
90
4
70
1
43
0.0
10
370.97000000000003
20
-5.8841820305133297e-14
10
410.97000000000003
20
-1.3100631690576847e-13
10
410.97000000000003
20
5.969999999999934
10
370.97000000000003
20
5.9699999999999349
0
LWPOLYLINE
5
120
100
AcDbEntity
8
0
100
AcDbPolyline
90
4
70
1
43
0.0
10
590
20
-22.500000000000114
10
595.97000000000003
20
-22.500000000000124
10
595.97000000000003
20
-2.5000000000001039
10
590
20
-2.500000000000111
0
LWPOLYLINE
5
121
100
AcDbEntity
8
0
100
AcDbPolyline
90
4
70
1
43
0.0
10
190.00000000000003
20
-48.250000000000043
10
190.00000000000003
20
-35.750000000000043
10
184.00000000000006
20
-35.750000000000043
10
184.00000000000006
20
-48.250000000000043
0
CIRCLE
5
122
100
AcDbEntity
8
0
100
AcDbCircle
10
310
20
-32.500000000000114
30
0
40
1.9500000000000028
210
-0
220
0
230
1
0
CIRCLE
5
123
100
AcDbEntity
8
0
100
AcDbCircle
10
170.99999999999997
20
-32.500000000000064
30
0
40
1.9500000000000028
210
-0
220
0
230
1
0
CIRCLE
5
124
100
AcDbEntity
8
0
100
AcDbCircle
10
56.999999999999986
20
-32.500000000000028
30
0
40
1.9500000000000028
210
-0
220
0
230
1
0
CIRCLE
5
125
100
AcDbEntity
8
0
100
AcDbCircle
10
253
20
-32.500000000000085
30
0
40
1.9500000000000028
210
-0
220
0
230
1
0
CIRCLE
5
126
100
AcDbEntity
8
0
100
AcDbCircle
10
196
20
-32.500000000000078
30
0
40
1.9500000000000028
210
-0
220
0
230
1
0
CIRCLE
5
127
100
AcDbEntity
8
0
100
AcDbCircle
10
113.99999999999997
20
-32.500000000000043
30
0
40
1.9500000000000028
210
-0
220
0
230
1
0
LWPOLYLINE
5
128
100
AcDbEntity
8
0
100
AcDbPolyline
90
8
70
1
43
0.0
10
0
20
10
10
600
20
9.9999999999998934
10
600
20
-70.000000000000654
10
540
20
-70.000000000000128
10
540.00000000000011
20
-55.000000000000142
10
59.999999999999986
20
-55.000000000000014
10
59.999999999999986
20
-70.000000000000014
10
-1.9984014443252818e-14
20
-70
0
ENDSEC
0
SECTION
2
OBJECTS
0
DICTIONARY
5
C
100
AcDbDictionary
3
ACAD_GROUP
350
D
3
ACAD_MLINESTYLE
350
17
0
DICTIONARY
5
D
100
AcDbDictionary
0
DICTIONARY
5
1A
330
C
100
AcDbDictionary
0
DICTIONARY
5
17
100
AcDbDictionary
0
ENDSEC
0
EOF
