0
SECTION
2
HEADER
9
$INSUNITS
70
4
9
$ACADVER
1
AC1014
9
$HANDSEED
5
FFFF
0
ENDSEC
0
SECTION
2
TABLES
0
TABLE
2
VPORT
5
8
100
AcDbSymbolTable
0
ENDTAB
0
TABLE
2
LTYPE
5
5
100
AcDbSymbolTable
0
LTYPE
5
14
100
AcDbSymbolTableRecord
100
AcDbLinetypeTableRecord
2
BYBLOCK
70
0
0
LTYPE
5
15
100
AcDbSymbolTableRecord
100
AcDbLinetypeTableRecord
2
BYLAYER
70
0
0
ENDTAB
0
TABLE
2
LAYER
5
2
100
AcDbSymbolTable
70
2
0
LAYER
5
50
100
AcDbSymbolTableRecord
100
AcDbLayerTableRecord
2
0
70
0
6
CONTINUOUS
0
ENDTAB
0
TABLE
2
STYLE
5
3
100
AcDbSymbolTable
70
1
0
STYLE
5
11
100
AcDbSymbolTableRecord
100
AcDbTextStyleTableRecord
2
STANDARD
70
0
0
ENDTAB
0
TABLE
2
VIEW
5
6
100
AcDbSymbolTable
70
0
0
ENDTAB
0
TABLE
2
UCS
5
7
100
AcDbSymbolTable
70
0
0
ENDTAB
0
TABLE
2
APPID
5
9
100
AcDbSymbolTable
70
2
0
APPID
5
12
100
AcDbSymbolTableRecord
100
AcDbRegAppTableRecord
2
ACAD
70
0
0
ENDTAB
0
TABLE
2
DIMSTYLE
5
A
100
AcDbSymbolTable
70
1
0
ENDTAB
0
TABLE
2
BLOCK_RECORD
5
1
100
AcDbSymbolTable
70
1
0
BLOCK_RECORD
5
1F
100
AcDbSymbolTableRecord
100
AcDbBlockTableRecord
2
*MODEL_SPACE
0
BLOCK_RECORD
5
1B
100
AcDbSymbolTableRecord
100
AcDbBlockTableRecord
2
*PAPER_SPACE
0
ENDTAB
0
ENDSEC
0
SECTION
2
BLOCKS
0
BLOCK
5
20
100
AcDbEntity
100
AcDbBlockBegin
2
*MODEL_SPACE
0
ENDBLK
5
21
100
AcDbEntity
100
AcDbBlockEnd
0
BLOCK
5
1C
100
AcDbEntity
100
AcDbBlockBegin
2
*PAPER_SPACE
0
ENDBLK
5
1D
100
AcDbEntity
100
AcDbBlockEnd
0
ENDSEC
0
SECTION
2
ENTITIES
0
CIRCLE
5
100
100
AcDbEntity
8
0
100
AcDbCircle
10
-164.01525115966834
20
-99.500000362821325
30
2.2204460492503131e-15
40
1.9999999999999929
210
-5.3526926479814348e-31
220
6.3108872417680958e-30
230
1
0
CIRCLE
5
101
100
AcDbEntity
8
0
100
AcDbCircle
10
-314.01525115966831
20
-99.500000362820487
30
1.1102230246251565e-15
40
1.9999999999999929
210
-5.3526926479814348e-31
220
6.3108872417680958e-30
230
1
0
CIRCLE
5
102
100
AcDbEntity
8
0
100
AcDbCircle
10
-164.01525115966805
20
-49.500000362821346
30
1.1102230246251565e-15
40
1.9999999999999929
210
-5.3526926479814348e-31
220
6.3108872417680958e-30
230
1
0
CIRCLE
5
103
100
AcDbEntity
8
0
100
AcDbCircle
10
-314.01525115966808
20
-49.500000362820515
30
0
40
1.9999999999999929
210
-5.3526926479814348e-31
220
6.3108872417680958e-30
230
1
0
LWPOLYLINE
5
104
100
AcDbEntity
8
0
100
AcDbPolyline
90
52
70
1
43
0.0
10
-91.51525115966804
20
-8.5000003628228686
10
-91.515251159668068
20
-14.500000362821977
10
-54.515251159668168
20
-14.500000362821972
10
-54.515251159668317
20
-29.000000362821929
10
-48.515251159668139
20
-29.000000362821972
10
-48.515251159668303
20
-60.000000362821979
10
-54.515251159668516
20
-60.000000362821936
10
-54.515251159668814
20
-89.000000362821908
10
-48.515251159668423
20
-89.000000362821936
10
-48.515251159668587
20
-120.00000036282195
10
-54.515251159668949
20
-120.00000036282191
10
-54.515251159669248
20
-134.50000036282196
10
-91.51525115966875
20
-134.50000036282165
10
-91.515251159668793
20
-140.50000036282171
10
-127.51525115966882
20
-140.50000036282151
10
-127.51525115966874
20
-134.50000036282148
10
-166.51525115966874
20
-134.50000036282125
10
-166.51525115966876
20
-140.50000036282128
10
-202.51525115966876
20
-140.50000036282111
10
-202.51525115966874
20
-134.50000036282108
10
-238.51525115966842
20
-134.50000036282083
10
-238.51525115966854
20
-140.50000036282088
10
-274.51525115966848
20
-140.50000036282069
10
-274.51525115966842
20
-134.50000036282066
10
-313.51525115966848
20
-134.5000003628204
10
-313.51525115966848
20
-140.50000036282046
10
-349.51525115966842
20
-140.50000036282029
10
-349.51525115966842
20
-134.50000036282023
10
-386.51525115966848
20
-134.50000036282003
10
-386.51525115966842
20
-120.00000036282006
10
-392.51525115966837
20
-120.00000036282003
10
-392.5152511596682
20
-89.000000362820018
10
-386.51525115966825
20
-89.000000362820089
10
-386.51525115966814
20
-60.00000036282011
10
-392.51525115966808
20
-60.000000362820067
10
-392.51525115966786
20
-29.000000362820082
10
-386.51525115966797
20
-29.00000036282011
10
-386.51525115966791
20
-14.500000362821241
10
-349.51525115966774
20
-14.500000362821325
10
-349.51525115966774
20
-8.5000003628214387
10
-313.51525115966774
20
-8.5000003628216341
10
-313.5152511596678
20
-14.500000362821146
10
-274.5152511596678
20
-14.500000362821472
10
-274.51525115966774
20
-8.5000003628218561
10
-238.51525115966777
20
-8.5000003628220515
10
-238.5152511596678
20
-14.500000362821622
10
-202.51525115966808
20
-14.500000362821627
10
-202.51525115966803
20
-8.5000003628222558
10
-166.51525115966803
20
-8.5000003628224512
10
-166.51525115966808
20
-14.500000362821826
10
-127.51525115966811
20
-14.500000362821797
10
-127.51525115966805
20
-8.5000003628227088
0
ENDSEC
0
SECTION
2
OBJECTS
0
DICTIONARY
5
C
100
AcDbDictionary
3
ACAD_GROUP
350
D
3
ACAD_MLINESTYLE
350
17
0
DICTIONARY
5
D
100
AcDbDictionary
0
DICTIONARY
5
1A
330
C
100
AcDbDictionary
0
DICTIONARY
5
17
100
AcDbDictionary
0
ENDSEC
0
EOF
