0
SECTION
2
HEADER
9
$INSUNITS
70
4
9
$ACADVER
1
AC1014
9
$HANDSEED
5
FFFF
0
ENDSEC
0
SECTION
2
TABLES
0
TABLE
2
VPORT
5
8
100
AcDbSymbolTable
0
ENDTAB
0
TABLE
2
LTYPE
5
5
100
AcDbSymbolTable
0
LTYPE
5
14
100
AcDbSymbolTableRecord
100
AcDbLinetypeTableRecord
2
BYBLOCK
70
0
0
LTYPE
5
15
100
AcDbSymbolTableRecord
100
AcDbLinetypeTableRecord
2
BYLAYER
70
0
0
ENDTAB
0
TABLE
2
LAYER
5
2
100
AcDbSymbolTable
70
2
0
LAYER
5
50
100
AcDbSymbolTableRecord
100
AcDbLayerTableRecord
2
0
70
0
6
CONTINUOUS
0
ENDTAB
0
TABLE
2
STYLE
5
3
100
AcDbSymbolTable
70
1
0
STYLE
5
11
100
AcDbSymbolTableRecord
100
AcDbTextStyleTableRecord
2
STANDARD
70
0
0
ENDTAB
0
TABLE
2
VIEW
5
6
100
AcDbSymbolTable
70
0
0
ENDTAB
0
TABLE
2
UCS
5
7
100
AcDbSymbolTable
70
0
0
ENDTAB
0
TABLE
2
APPID
5
9
100
AcDbSymbolTable
70
2
0
APPID
5
12
100
AcDbSymbolTableRecord
100
AcDbRegAppTableRecord
2
ACAD
70
0
0
ENDTAB
0
TABLE
2
DIMSTYLE
5
A
100
AcDbSymbolTable
70
1
0
ENDTAB
0
TABLE
2
BLOCK_RECORD
5
1
100
AcDbSymbolTable
70
1
0
BLOCK_RECORD
5
1F
100
AcDbSymbolTableRecord
100
AcDbBlockTableRecord
2
*MODEL_SPACE
0
BLOCK_RECORD
5
1B
100
AcDbSymbolTableRecord
100
AcDbBlockTableRecord
2
*PAPER_SPACE
0
ENDTAB
0
ENDSEC
0
SECTION
2
BLOCKS
0
BLOCK
5
20
100
AcDbEntity
100
AcDbBlockBegin
2
*MODEL_SPACE
0
ENDBLK
5
21
100
AcDbEntity
100
AcDbBlockEnd
0
BLOCK
5
1C
100
AcDbEntity
100
AcDbBlockBegin
2
*PAPER_SPACE
0
ENDBLK
5
1D
100
AcDbEntity
100
AcDbBlockEnd
0
ENDSEC
0
SECTION
2
ENTITIES
0
LWPOLYLINE
5
100
100
AcDbEntity
8
0
100
AcDbPolyline
90
4
70
1
43
0.0
10
89.49999957510542
20
2.4999997615856775
10
119.49999957510541
20
2.4999997615871461
10
119.49999957510511
20
8.4999997615871479
10
89.499999575105122
20
8.4999997615856735
0
LWPOLYLINE
5
101
100
AcDbEntity
8
0
100
AcDbPolyline
90
4
70
1
43
0.0
10
29.499999575105427
20
2.4999997615827421
10
59.49999957510542
20
2.4999997615842107
10
59.499999575105122
20
8.4999997615842044
10
29.499999575105122
20
8.4999997615827354
0
LWPOLYLINE
5
102
100
AcDbEntity
8
0
100
AcDbPolyline
90
4
70
1
43
0.0
10
56.999999575102471
20
62.082214861743275
10
91.99999957510245
20
62.082214861744987
10
91.999999575101896
20
73.082214861744973
10
56.99999957510191
20
73.082214861743267
0
LWPOLYLINE
5
103
100
AcDbEntity
8
0
100
AcDbPolyline
90
24
70
1
43
0.0
10
134.4999995751059
20
-8.5000002384118627
10
109.49999957510593
20
-8.5000002384130848
10
109.49999957510555
20
-0.5000002384130815
10
39.499999575105583
20
-0.50000023841650809
10
39.499999575105981
20
-8.5000002384165114
10
14.499999575105987
20
-8.5000002384177371
10
14.499999575105617
20
-1.0000002384177304
10
8.4999995751055852
20
-1.000000238418024
10
8.49999957510496
20
11.999999761581977
10
14.499999575104978
20
11.999999761582281
10
14.499999575102366
20
64.582214861740837
10
8.49999957510237
20
64.582214861740525
10
8.4999995751016915
20
77.582214861740496
10
14.499999575101732
20
77.582214861740795
10
14.499999575101352
20
85.082214861740809
10
134.49999957510133
20
85.082214861746706
10
134.49999957510155
20
77.582214861746678
10
140.4999995751017
20
77.582214861746976
10
140.49999957510235
20
64.582214861746991
10
134.49999957510235
20
64.582214861746692
10
134.49999957510494
20
11.999999761588144
10
140.49999957510494
20
11.999999761588441
10
140.49999957510556
20
-1.0000002384115665
10
134.49999957510553
20
-1.00000023841186
0
ENDSEC
0
SECTION
2
OBJECTS
0
DICTIONARY
5
C
100
AcDbDictionary
3
ACAD_GROUP
350
D
3
ACAD_MLINESTYLE
350
17
0
DICTIONARY
5
D
100
AcDbDictionary
0
DICTIONARY
5
1A
330
C
100
AcDbDictionary
0
DICTIONARY
5
17
100
AcDbDictionary
0
ENDSEC
0
EOF
