0
SECTION
2
HEADER
9
$INSUNITS
70
4
9
$ACADVER
1
AC1014
9
$HANDSEED
5
FFFF
0
ENDSEC
0
SECTION
2
TABLES
0
TABLE
2
VPORT
5
8
100
AcDbSymbolTable
0
ENDTAB
0
TABLE
2
LTYPE
5
5
100
AcDbSymbolTable
0
LTYPE
5
14
100
AcDbSymbolTableRecord
100
AcDbLinetypeTableRecord
2
BYBLOCK
70
0
0
LTYPE
5
15
100
AcDbSymbolTableRecord
100
AcDbLinetypeTableRecord
2
BYLAYER
70
0
0
ENDTAB
0
TABLE
2
LAYER
5
2
100
AcDbSymbolTable
70
2
0
LAYER
5
50
100
AcDbSymbolTableRecord
100
AcDbLayerTableRecord
2
0
70
0
6
CONTINUOUS
0
ENDTAB
0
TABLE
2
STYLE
5
3
100
AcDbSymbolTable
70
1
0
STYLE
5
11
100
AcDbSymbolTableRecord
100
AcDbTextStyleTableRecord
2
STANDARD
70
0
0
ENDTAB
0
TABLE
2
VIEW
5
6
100
AcDbSymbolTable
70
0
0
ENDTAB
0
TABLE
2
UCS
5
7
100
AcDbSymbolTable
70
0
0
ENDTAB
0
TABLE
2
APPID
5
9
100
AcDbSymbolTable
70
2
0
APPID
5
12
100
AcDbSymbolTableRecord
100
AcDbRegAppTableRecord
2
ACAD
70
0
0
ENDTAB
0
TABLE
2
DIMSTYLE
5
A
100
AcDbSymbolTable
70
1
0
ENDTAB
0
TABLE
2
BLOCK_RECORD
5
1
100
AcDbSymbolTable
70
1
0
BLOCK_RECORD
5
1F
100
AcDbSymbolTableRecord
100
AcDbBlockTableRecord
2
*MODEL_SPACE
0
BLOCK_RECORD
5
1B
100
AcDbSymbolTableRecord
100
AcDbBlockTableRecord
2
*PAPER_SPACE
0
ENDTAB
0
ENDSEC
0
SECTION
2
BLOCKS
0
BLOCK
5
20
100
AcDbEntity
100
AcDbBlockBegin
2
*MODEL_SPACE
0
ENDBLK
5
21
100
AcDbEntity
100
AcDbBlockEnd
0
BLOCK
5
1C
100
AcDbEntity
100
AcDbBlockBegin
2
*PAPER_SPACE
0
ENDBLK
5
1D
100
AcDbEntity
100
AcDbBlockEnd
0
ENDSEC
0
SECTION
2
ENTITIES
0
CIRCLE
5
100
100
AcDbEntity
8
0
100
AcDbCircle
10
77.874996583720176
20
-202.26296694728001
30
0
40
2.9999999999999982
210
-1.3143043268672354e-30
220
1.1102230246133435e-16
230
1
0
CIRCLE
5
101
100
AcDbEntity
8
0
100
AcDbCircle
10
118.47499658371936
20
-190.9129669472772
30
-7.1054273576010019e-14
40
1.4999999999999991
210
-1.3143043268672354e-30
220
1.1102230246133435e-16
230
1
0
CIRCLE
5
102
100
AcDbEntity
8
0
100
AcDbCircle
10
30.524996583719378
20
-190.91296694728325
30
-7.1054273576010019e-14
40
1.5000000000000036
210
6.3108872418492296e-30
220
-1.1813265327037348e-27
230
1
0
CIRCLE
5
103
100
AcDbEntity
8
0
100
AcDbCircle
10
110.87499658372016
20
-202.26296694727768
30
0
40
4.5000000000000009
210
-1.3936078810403426e-29
220
1.1102230246133437e-16
230
1
0
CIRCLE
5
104
100
AcDbEntity
8
0
100
AcDbCircle
10
118.47499658371488
20
-125.91296694727716
30
-7.1054273576010019e-14
40
1.4999999999999991
210
-1.3143043268672354e-30
220
1.1102230246133435e-16
230
1
0
LWPOLYLINE
5
105
100
AcDbEntity
8
0
100
AcDbPolyline
90
8
70
1
43
0.0
10
35.474996583715452
20
-133.91296694728294
42
-0.4142135623731002
10
36.474996583715409
20
-132.91296694728285
10
112.92499658371537
20
-132.9129669472776
42
-0.41421356237307944
10
113.92499658371541
20
-133.91296694727754
10
113.92499658371881
20
-182.91296694727751
42
-0.41421356237308465
10
112.92499658371887
20
-183.91296694727757
10
36.474996583718877
20
-183.91296694728283
42
-0.41421356237308982
10
35.474996583718834
20
-182.91296694728291
0
CIRCLE
5
106
100
AcDbEntity
8
0
100
AcDbCircle
10
30.524996583714874
20
-125.91296694728319
30
-7.1054273576010019e-14
40
1.5000000000000036
210
6.3108872418492296e-30
220
-1.1813265327037348e-27
230
1
0
CIRCLE
5
107
100
AcDbEntity
8
0
100
AcDbCircle
10
93.124996583720161
20
-202.2629669472789
30
0
40
1.5000000000000036
210
6.3108872418492296e-30
220
-1.1813265327037348e-27
230
1
0
LWPOLYLINE
5
108
100
AcDbEntity
8
0
100
AcDbPolyline
90
20
70
1
43
0.0
10
14.499996583718627
20
-179.88796694728427
10
14.499996583716827
20
-153.8879669472843
10
8.4999965837168538
20
-153.88796694728472
10
8.4999965837151077
20
-128.88796694728472
10
14.499996583715093
20
-128.88796694728424
10
14.499996583714427
20
-119.38796694728431
10
134.49999658371442
20
-119.38796694727607
10
134.49999658371507
20
-128.88796694727608
10
140.49999658371507
20
-128.88796694727569
10
140.49999658371678
20
-153.88796694727569
10
134.49999658371678
20
-153.88796694727606
10
134.4999965837186
20
-179.88796694727608
10
140.4999965837186
20
-179.88796694727566
10
140.49999658372033
20
-204.88796694727557
10
134.49999658372033
20
-204.88796694727597
10
134.49999658372096
20
-214.38796694727608
10
14.499996583721011
20
-214.38796694728433
10
14.499996583720369
20
-204.88796694728424
10
8.4999965837203799
20
-204.88796694728475
10
8.4999965837186338
20
-179.88796694728472
0
ENDSEC
0
SECTION
2
OBJECTS
0
DICTIONARY
5
C
100
AcDbDictionary
3
ACAD_GROUP
350
D
3
ACAD_MLINESTYLE
350
17
0
DICTIONARY
5
D
100
AcDbDictionary
0
DICTIONARY
5
1A
330
C
100
AcDbDictionary
0
DICTIONARY
5
17
100
AcDbDictionary
0
ENDSEC
0
EOF
