0
SECTION
2
HEADER
9
$INSUNITS
70
4
9
$ACADVER
1
AC1014
9
$HANDSEED
5
FFFF
0
ENDSEC
0
SECTION
2
TABLES
0
TABLE
2
VPORT
5
8
100
AcDbSymbolTable
0
ENDTAB
0
TABLE
2
LTYPE
5
5
100
AcDbSymbolTable
0
LTYPE
5
14
100
AcDbSymbolTableRecord
100
AcDbLinetypeTableRecord
2
BYBLOCK
70
0
0
LTYPE
5
15
100
AcDbSymbolTableRecord
100
AcDbLinetypeTableRecord
2
BYLAYER
70
0
0
ENDTAB
0
TABLE
2
LAYER
5
2
100
AcDbSymbolTable
70
2
0
LAYER
5
50
100
AcDbSymbolTableRecord
100
AcDbLayerTableRecord
2
0
70
0
6
CONTINUOUS
0
ENDTAB
0
TABLE
2
STYLE
5
3
100
AcDbSymbolTable
70
1
0
STYLE
5
11
100
AcDbSymbolTableRecord
100
AcDbTextStyleTableRecord
2
STANDARD
70
0
0
ENDTAB
0
TABLE
2
VIEW
5
6
100
AcDbSymbolTable
70
0
0
ENDTAB
0
TABLE
2
UCS
5
7
100
AcDbSymbolTable
70
0
0
ENDTAB
0
TABLE
2
APPID
5
9
100
AcDbSymbolTable
70
2
0
APPID
5
12
100
AcDbSymbolTableRecord
100
AcDbRegAppTableRecord
2
ACAD
70
0
0
ENDTAB
0
TABLE
2
DIMSTYLE
5
A
100
AcDbSymbolTable
70
1
0
ENDTAB
0
TABLE
2
BLOCK_RECORD
5
1
100
AcDbSymbolTable
70
1
0
BLOCK_RECORD
5
1F
100
AcDbSymbolTableRecord
100
AcDbBlockTableRecord
2
*MODEL_SPACE
0
BLOCK_RECORD
5
1B
100
AcDbSymbolTableRecord
100
AcDbBlockTableRecord
2
*PAPER_SPACE
0
ENDTAB
0
ENDSEC
0
SECTION
2
BLOCKS
0
BLOCK
5
20
100
AcDbEntity
100
AcDbBlockBegin
2
*MODEL_SPACE
0
ENDBLK
5
21
100
AcDbEntity
100
AcDbBlockEnd
0
BLOCK
5
1C
100
AcDbEntity
100
AcDbBlockBegin
2
*PAPER_SPACE
0
ENDBLK
5
1D
100
AcDbEntity
100
AcDbBlockEnd
0
ENDSEC
0
SECTION
2
ENTITIES
0
LWPOLYLINE
5
100
100
AcDbEntity
8
0
100
AcDbPolyline
90
4
70
1
43
0.0
10
271.09746625982564
20
147.9999997615804
10
301.09746625982564
20
147.99999976158057
10
301.09746625982558
20
153.99999976158054
10
271.09746625982558
20
153.99999976158045
0
LWPOLYLINE
5
101
100
AcDbEntity
8
0
100
AcDbPolyline
90
4
70
1
43
0.0
10
274.01525115966757
20
2.4999997615803893
10
274.01525115966757
20
8.4999997615803551
10
239.01525115966763
20
8.4999997615802023
10
239.0152511596676
20
2.499999761580233
0
LWPOLYLINE
5
102
100
AcDbEntity
8
0
100
AcDbPolyline
90
4
70
1
43
0.0
10
48.515251159667798
20
4.499999761579434
10
54.515251159667812
20
4.4999997615794607
10
54.515251159667812
20
28.499999761579463
10
48.515251159667692
20
28.499999761579438
0
LWPOLYLINE
5
103
100
AcDbEntity
8
0
100
AcDbPolyline
90
4
70
1
43
0.0
10
349.01525115966757
20
2.4999997615807756
10
349.01525115966757
20
8.4999997615806748
10
314.01525115966757
20
8.4999997615805185
10
314.01525115966757
20
2.4999997615806193
0
LWPOLYLINE
5
104
100
AcDbEntity
8
0
100
AcDbPolyline
90
4
70
1
43
0.0
10
364.2309799122051
20
109.123845422082
10
381.20154266068243
20
92.15328267360502
10
385.44418334780175
20
96.395923360724396
10
368.47362059932459
20
113.36648610920145
0
LWPOLYLINE
5
105
100
AcDbEntity
8
0
100
AcDbPolyline
90
4
70
1
43
0.0
10
48.515251159667443
20
92.499999761579232
10
54.515251159667457
20
92.499999761579289
10
54.515251159667315
20
116.49999976157929
10
48.515251159667336
20
116.49999976157926
0
LWPOLYLINE
5
106
100
AcDbEntity
8
0
100
AcDbPolyline
90
4
70
1
43
0.0
10
127.01525115966788
20
2.4999997615796565
10
127.01525115966786
20
8.4999997615795646
10
92.015251159667855
20
8.4999997615794083
10
92.015251159667898
20
2.4999997615795002
0
LWPOLYLINE
5
107
100
AcDbEntity
8
0
100
AcDbPolyline
90
4
70
1
43
0.0
10
386.51525115966729
20
65.082214861739487
10
392.51525115966729
20
65.08221486173953
10
392.51525115966729
20
77.08221486173953
10
386.51525115966729
20
77.082214861739487
0
LWPOLYLINE
5
108
100
AcDbEntity
8
0
100
AcDbPolyline
90
4
70
1
43
0.0
10
386.51525115966774
20
-0.50000023841903507
10
392.51525115966774
20
-0.5000002384190072
10
392.51525115966763
20
11.499999761580991
10
386.51525115966763
20
11.499999761580968
0
LWPOLYLINE
5
109
100
AcDbEntity
8
0
100
AcDbPolyline
90
4
70
1
43
0.0
10
212.01525115966729
20
68.499999761579829
10
212.01525115966723
20
74.499999761579858
10
177.0152511596672
20
74.499999761579659
10
177.01525115966723
20
68.499999761382227
0
LWPOLYLINE
5
110
100
AcDbEntity
8
0
100
AcDbPolyline
90
4
70
1
43
0.0
10
122.01525115966753
20
68.499999761579403
10
122.01525115966749
20
74.499999761579375
10
87.015251159667457
20
74.499999761579232
10
87.015251159667514
20
68.499999761579261
0
LWPOLYLINE
5
111
100
AcDbEntity
8
0
100
AcDbPolyline
90
4
70
1
43
0.0
10
332.4111747588102
20
149.42893194971555
10
328.16853407169094
20
145.18629126259609
10
345.13909682016822
20
128.21572851411889
10
349.38173750728754
20
132.45836920123838
0
LWPOLYLINE
5
112
100
AcDbEntity
8
0
100
AcDbPolyline
90
4
70
1
43
0.0
10
302.01525115966723
20
68.499999761580256
10
302.01525115966717
20
74.499999761986786
10
267.01525115966723
20
74.499999761580113
10
267.01525115966723
20
68.499999761504739
0
LWPOLYLINE
5
113
100
AcDbEntity
8
0
100
AcDbPolyline
90
4
70
1
43
0.0
10
74.515251159667145
20
147.99999976157955
10
104.51525115966714
20
147.99999976157969
10
104.51525115966717
20
153.99999976157974
10
74.515251159667145
20
153.99999976157957
0
LWPOLYLINE
5
114
100
AcDbEntity
8
0
100
AcDbPolyline
90
4
70
1
43
0.0
10
202.01525115966786
20
2.4999997615800429
10
202.0152511596678
20
8.4999997615798879
10
167.0152511596678
20
8.4999997615797351
10
167.01525115966786
20
2.4999997615798866
0
LWPOLYLINE
5
115
100
AcDbEntity
8
0
100
AcDbPolyline
90
9
70
1
43
0.0
10
70.515251159667883
20
-8.5000002384204585
10
45.515251159667898
20
-8.5000002384205686
10
45.515251159667116
20
159.4999997615794
10
326.58274763406416
20
159.49999976158074
10
395.51525115966712
20
90.567496235978396
10
395.51525115966774
20
-8.5000002384189948
10
370.51525115966786
20
-8.5000002384191049
10
370.51525115966768
20
-0.50000023841910535
10
70.515251159667855
20
-0.50000023842044605
0
ENDSEC
0
SECTION
2
OBJECTS
0
DICTIONARY
5
C
100
AcDbDictionary
3
ACAD_GROUP
350
D
3
ACAD_MLINESTYLE
350
17
0
DICTIONARY
5
D
100
AcDbDictionary
0
DICTIONARY
5
1A
330
C
100
AcDbDictionary
0
DICTIONARY
5
17
100
AcDbDictionary
0
ENDSEC
0
EOF
