0
SECTION
2
HEADER
9
$INSUNITS
70
4
9
$ACADVER
1
AC1014
9
$HANDSEED
5
FFFF
0
ENDSEC
0
SECTION
2
TABLES
0
TABLE
2
VPORT
5
8
100
AcDbSymbolTable
0
ENDTAB
0
TABLE
2
LTYPE
5
5
100
AcDbSymbolTable
0
LTYPE
5
14
100
AcDbSymbolTableRecord
100
AcDbLinetypeTableRecord
2
BYBLOCK
70
0
0
LTYPE
5
15
100
AcDbSymbolTableRecord
100
AcDbLinetypeTableRecord
2
BYLAYER
70
0
0
ENDTAB
0
TABLE
2
LAYER
5
2
100
AcDbSymbolTable
70
2
0
LAYER
5
50
100
AcDbSymbolTableRecord
100
AcDbLayerTableRecord
2
0
70
0
6
CONTINUOUS
0
ENDTAB
0
TABLE
2
STYLE
5
3
100
AcDbSymbolTable
70
1
0
STYLE
5
11
100
AcDbSymbolTableRecord
100
AcDbTextStyleTableRecord
2
STANDARD
70
0
0
ENDTAB
0
TABLE
2
VIEW
5
6
100
AcDbSymbolTable
70
0
0
ENDTAB
0
TABLE
2
UCS
5
7
100
AcDbSymbolTable
70
0
0
ENDTAB
0
TABLE
2
APPID
5
9
100
AcDbSymbolTable
70
2
0
APPID
5
12
100
AcDbSymbolTableRecord
100
AcDbRegAppTableRecord
2
ACAD
70
0
0
ENDTAB
0
TABLE
2
DIMSTYLE
5
A
100
AcDbSymbolTable
70
1
0
ENDTAB
0
TABLE
2
BLOCK_RECORD
5
1
100
AcDbSymbolTable
70
1
0
BLOCK_RECORD
5
1F
100
AcDbSymbolTableRecord
100
AcDbBlockTableRecord
2
*MODEL_SPACE
0
BLOCK_RECORD
5
1B
100
AcDbSymbolTableRecord
100
AcDbBlockTableRecord
2
*PAPER_SPACE
0
ENDTAB
0
ENDSEC
0
SECTION
2
BLOCKS
0
BLOCK
5
20
100
AcDbEntity
100
AcDbBlockBegin
2
*MODEL_SPACE
0
ENDBLK
5
21
100
AcDbEntity
100
AcDbBlockEnd
0
BLOCK
5
1C
100
AcDbEntity
100
AcDbBlockBegin
2
*PAPER_SPACE
0
ENDBLK
5
1D
100
AcDbEntity
100
AcDbBlockEnd
0
ENDSEC
0
SECTION
2
ENTITIES
0
CIRCLE
5
100
100
AcDbEntity
8
0
100
AcDbCircle
10
-107.01525115966493
20
-36.499999885885686
30
0
40
1.4999999999999856
210
4.8692123827752047e-32
220
-4.9418315516778123e-46
230
1
0
CIRCLE
5
101
100
AcDbEntity
8
0
100
AcDbCircle
10
-242.0152511596649
20
-36.499999885884371
30
0
40
1.5000000000000033
210
4.8692123827816096e-32
220
6.3108872417680937e-30
230
1
0
CIRCLE
5
102
100
AcDbEntity
8
0
100
AcDbCircle
10
-242.0152511596657
20
-112.49999988588416
30
0
40
1.5000000000000033
210
4.8692123827816096e-32
220
6.3108872417680937e-30
230
1
0
CIRCLE
5
103
100
AcDbEntity
8
0
100
AcDbCircle
10
-107.01525115966572
20
-112.49999988588577
30
0
40
1.4999999999999856
210
4.8692123827752047e-32
220
-4.9418315516778123e-46
230
1
0
CIRCLE
5
104
100
AcDbEntity
8
0
100
AcDbCircle
10
-80.515251159665482
20
-74.499999885885984
30
0
40
4.9999999999999991
210
4.8692123827752047e-32
220
-4.9418315516778123e-46
230
1
0
LWPOLYLINE
5
105
100
AcDbEntity
8
0
100
AcDbPolyline
90
36
70
1
43
0.0
10
-54.515251159665318
20
-59.999999885886268
10
-54.51525115966561
20
-88.999999885886297
10
-48.515251159665354
20
-88.999999885886254
10
-48.515251159665524
20
-119.99999988588628
10
-54.515251159665816
20
-119.9999998858863
10
-54.515251159665937
20
-134.49999988588621
10
-86.515251159666079
20
-134.4999998858859
10
-86.515251159666136
20
-140.49999988588593
10
-122.51525115966614
20
-140.49999988588556
10
-122.51525115966604
20
-134.49999988588556
10
-176.51525115966598
20
-134.49999988588499
10
-176.51525115966606
20
-140.4999998858757
10
-212.51525115966572
20
-140.49999988588425
10
-212.51525115966564
20
-134.49999988593933
10
-266.5152511596657
20
-134.49999988588402
10
-266.51525115966581
20
-140.4999998853628
10
-302.51525115966604
20
-140.49999988588337
10
-302.51525115966592
20
-134.49999988609977
10
-334.51525115966581
20
-134.49999988588334
10
-334.51525115966461
20
-14.499999885883202
10
-302.51525115966473
20
-14.499999885883597
10
-302.51525115966467
20
-8.4999998858244545
10
-266.51525115966444
20
-8.4999998858840815
10
-266.5152511596645
20
-14.499999885996308
10
-212.51525115966473
20
-14.49999988588452
10
-212.51525115966467
20
-8.4999998858668739
10
-176.51525115966473
20
-8.4999998858850052
10
-176.51525115966481
20
-14.499999885914525
10
-122.51525115966486
20
-14.499999885885515
10
-122.5152511596648
20
-8.4999998858855612
10
-86.5152511596648
20
-8.4999998858859289
10
-86.515251159664899
20
-14.499999885885902
10
-54.515251159664892
20
-14.499999885886298
10
-54.515251159665041
20
-28.999999885886155
10
-48.515251159665141
20
-28.999999885886261
10
-48.515251159665098
20
-59.999999885886297
0
ENDSEC
0
SECTION
2
OBJECTS
0
DICTIONARY
5
C
100
AcDbDictionary
3
ACAD_GROUP
350
D
3
ACAD_MLINESTYLE
350
17
0
DICTIONARY
5
D
100
AcDbDictionary
0
DICTIONARY
5
1A
330
C
100
AcDbDictionary
0
DICTIONARY
5
17
100
AcDbDictionary
0
ENDSEC
0
EOF
